<?xml version="1.0" encoding="UTF-8"?>
<svg width="262px" height="262px" viewBox="0 0 262 262" version="1.1" xmlns="http://www.w3.org/2000/svg" xmlns:xlink="http://www.w3.org/1999/xlink">
    <title>Group</title>
    <defs>
        <radialGradient cx="50%" cy="0%" fx="50%" fy="0%" r="100%" id="radialGradient-1">
            <stop stop-color="#FF0089" offset="0%"></stop>
            <stop stop-color="#FFE100" offset="100%"></stop>
        </radialGradient>
    </defs>
    <g id="Page-1" stroke="none" stroke-width="1" fill="none" fill-rule="evenodd">
        <g id="Group">
            <path d="M133.5,1.44337567 L241.949328,64.0566243 C243.496333,64.9497883 244.449328,66.6004234 244.449328,68.3867513 L244.449328,193.613249 C244.449328,195.399577 243.496333,197.050212 241.949328,197.943376 L133.5,260.556624 C131.952995,261.449788 130.047005,261.449788 128.5,260.556624 L20.0506721,197.943376 C18.5036667,197.050212 17.5506721,195.399577 17.5506721,193.613249 L17.5506721,68.3867513 C17.5506721,66.6004234 18.5036667,64.9497883 20.0506721,64.0566243 L128.5,1.44337567 C130.047005,0.550211698 131.952995,0.550211698 133.5,1.44337567 Z" id="Polygon" fill="url(#radialGradient-1)"></path>
            <path d="M160.961071,85.6134926 L212.951565,178.120716 C216.198604,183.898206 214.147268,191.214032 208.369778,194.461071 C206.574531,195.470028 204.549839,196 202.490494,196 L98.5095064,196 C91.8820894,196 86.5095064,190.627417 86.5095064,184 C86.5095064,181.940655 87.0394786,179.915962 88.048435,178.120716 L140.038929,85.6134926 C143.285968,79.8360024 150.601794,77.7846664 156.379284,81.0317055 C158.297791,82.1099357 159.882841,83.6949865 160.961071,85.6134926 Z" id="Triangle" fill="#3E3E3E" transform="translate(150.500000, 131.500000) rotate(-270.000000) translate(-150.500000, -131.500000) "></path>
        </g>
    </g>
</svg>