<?xml version="1.0" encoding="UTF-8"?>
<svg width="29px" height="32px" viewBox="0 0 29 32" version="1.1" xmlns="http://www.w3.org/2000/svg" xmlns:xlink="http://www.w3.org/1999/xlink">
    <title>icon-google</title>
    <g id="Page-1" stroke="none" stroke-width="1" fill="none" fill-rule="evenodd">
        <g id="icon-google" transform="translate(-0.000000, 0.000000)" fill-rule="nonzero">
            <path d="M13.5400395,15.2800072 L0.120039472,29.3400072 C0.425409328,30.422327 1.21390356,31.3027294 2.25614574,31.7251015 C3.29838791,32.1474736 4.47733993,32.0643852 5.45003947,31.5000072 L20.5500395,22.9000072 L13.5400395,15.2800072 Z" id="Path" fill="#EA4335"></path>
            <path d="M27.1100395,12.8900072 L20.5800395,9.15000722 L13.2300395,15.6000072 L20.6100395,22.8800072 L27.0900395,19.1800072 C28.2601369,18.5673689 28.9933838,17.355785 28.9933838,16.0350072 C28.9933838,14.7142295 28.2601369,13.5026456 27.0900395,12.8900072 L27.1100395,12.8900072 Z" id="Path" fill="#FBBC04"></path>
            <path d="M0.120039472,2.66000722 C0.0389183396,2.95989592 -0.00144444604,3.26934395 0,3.58000722 L0,28.4200072 C0.000850852071,28.7305227 0.0411747586,29.0396726 0.120039472,29.3400072 L14.0000395,15.6400072 L0.120039472,2.66000722 Z" id="Path" fill="#4285F4"></path>
            <path d="M13.6400395,16 L20.5800395,9.15000722 L5.50003947,0.510007221 C4.93272512,0.177747604 4.28748826,0.00177391566 3.63003947,0 C1.99832663,-0.00322634393 0.563827171,1.07980031 0.120039472,2.65000722 L13.6400395,16 Z" id="Path" fill="#34A853"></path>
        </g>
    </g>
</svg>