<?xml version="1.0" encoding="UTF-8"?>
<svg width="260px" height="218px" viewBox="0 0 260 218" version="1.1" xmlns="http://www.w3.org/2000/svg" xmlns:xlink="http://www.w3.org/1999/xlink">
    <title>pomodoro</title>
    <g id="Page-1" stroke="none" stroke-width="1" fill="none" fill-rule="evenodd">
        <g id="Artboard" transform="translate(-177.000000, -157.000000)">
            <g id="pomodoro" transform="translate(177.421587, 157.974609)">
                <g id="Group" transform="translate(150.797893, 25.507812)">
                    <path d="M39.8068974,1 C47.4829349,1 60.5061772,5.56434766 69.7211833,10.5710759 C74.0073646,12.8998583 77.4747516,15.3123971 79.1224677,17.4275382 C79.6897884,18.1557967 80.059101,18.8261494 79.9936907,19.4405983 C79.9411631,19.9340297 79.5448442,20.3082269 78.9350053,20.6378747 C72.7958679,23.9563793 46.7814962,23.8594337 1,20.5867513 L1,20.5867513 L1.00000003,4.38765783 C17.2475971,2.13084949 30.1831458,1 39.8068974,1 Z" id="Rectangle" stroke="#660028" stroke-width="2" fill="#859D39"></path>
                    <path d="M0,11.2351434 C16.7105662,9.7719456 29.979532,9.04034673 39.8068974,9.04034673 C54.5479455,9.04034673 88.7446261,19.3180942 79.4105281,22.4662626 C73.1877962,24.5650414 46.7176201,24.5650414 0,22.4662626 L0,11.2351434 Z" id="Rectangle" fill="#000000" opacity="0.166178385"></path>
                </g>
                <path d="M252.398039,114.676758 L249.066185,134.676758 L8.49155995,134.676758 L6.67189065,114.676758 L252.398039,114.676758 Z" id="Rectangle" stroke="#660028" stroke-width="2" fill="#D8374B"></path>
                <g id="Group" transform="translate(65.297893, 37.527986) scale(-1, 1) translate(-65.297893, -37.527986) translate(24.797893, 25.507812)">
                    <path d="M39.8068974,1 C47.4829349,1 60.5061772,5.56434766 69.7211833,10.5710759 C74.0073646,12.8998583 77.4747516,15.3123971 79.1224677,17.4275382 C79.6897884,18.1557967 80.059101,18.8261494 79.9936907,19.4405983 C79.9411631,19.9340297 79.5448442,20.3082269 78.9350053,20.6378747 C72.7958679,23.9563793 46.7814962,23.8594337 1,20.5867513 L1,20.5867513 L1.00000003,4.38765783 C17.2475971,2.13084949 30.1831458,1 39.8068974,1 Z" id="Rectangle" stroke="#660028" stroke-width="2" fill="#859D39"></path>
                    <path d="M0,11.2351434 C16.7105662,9.7719456 29.979532,9.04034673 39.8068974,9.04034673 C54.5479455,9.04034673 88.7446261,19.3180942 79.4105281,22.4662626 C73.1877962,24.5650414 46.7176201,24.5650414 0,22.4662626 L0,11.2351434 Z" id="Rectangle" fill="#000000" opacity="0.166178385"></path>
                </g>
                <g id="Group-2" transform="translate(0.000000, 21.053670)">
                    <path d="M257.197021,15.2446826 C258.859427,36.0973121 256.410141,52.6791616 249.744344,64.9616467 C243.022018,77.3482931 231.991868,85.2837161 216.699062,88.8243532 C207.631506,90.9237013 191.492795,92.3381894 174.499251,93.2303469 L172.825217,93.3164214 C172.266433,93.3445552 171.706949,93.3721332 171.146984,93.3991612 L171.146984,93.3991612 L169.112867,93.4948253 C154.197594,94.1780396 139.12686,94.4717209 127.983686,94.4717209 C119.05849,94.4717209 106.827034,94.0350553 94.390476,93.3084162 L94.390476,93.3084162 L92.5660276,93.1998233 C91.3503357,93.1261324 90.134115,93.0497415 88.9219213,92.9708959 L88.9219213,92.9708959 L87.1016326,92.8504506 C71.7086067,91.8145051 56.9295337,90.377946 48.7187576,88.8122478 C31.8664088,85.5987038 19.6880712,77.8313542 12.2519267,65.420136 C4.89739832,53.1451384 2.17125354,36.4079283 3.95185427,15.2446826 L3.95185427,15.2446826 Z" id="Rectangle" stroke="#660028" stroke-width="3" fill="#D8374B" transform="translate(130.562738, 54.858202) scale(1, -1) translate(-130.562738, -54.858202) "></path>
                    <path d="M165.29814,56.4355881 C186.017866,56.4355881 174.694624,28.5400803 198.676069,28.5400803 C214.663699,28.5400803 227.66435,36.3506271 237.678022,51.9717209 L241.578412,92.9717209 L162.578413,92.9717209 C61.0166147,109.946981 8.85092456,109.946981 6.08134264,92.9717209 C1.92696976,67.5088303 12.6228576,41.8411706 17.750288,37.8398849 C59.7151317,5.09183807 91.8949328,19.0101367 92.1370067,17.4883224 C92.9757924,12.215239 158.871123,56.4355881 165.29814,56.4355881 Z" id="Rectangle" fill="#FFB880" opacity="0.129301525"></path>
                    <path d="M162.29814,71.42372 C183.017866,71.42372 171.694624,54.9717209 195.676069,54.9717209 C219.657515,54.9717209 223.1768,58.4256275 228.957319,71.42372 C232.810999,80.0891151 233.99915,87.271782 232.521772,92.9717209 L159.578413,92.9717209 C62.6896674,99.8951193 11.2114448,99.8951193 5.14374518,92.9717209 C-7.251534,78.8283944 3.19240034,44.0193184 31.7620067,27 C53.611344,13.9840409 94.2451898,16.5449981 94.4944286,15.819867 C95.1113295,14.0250656 129.469222,30.7203952 148.727827,47.5430099 C160.571958,57.8889961 159.935298,71.42372 162.29814,71.42372 Z" id="Rectangle" fill="#FFB880" opacity="0.129301525"></path>
                    <path d="M40.7171006,78.5433717 C51.7627956,78.5433717 65.8058683,52.9021796 65.8058683,39.3712032 C65.8058683,25.8402268 64.628077,5.87844091 53.582382,5.87844091 C42.536687,5.87844091 20.7171006,40.5124027 20.7171006,54.0433791 C20.7171006,67.5743555 29.6714056,78.5433717 40.7171006,78.5433717 Z" id="Oval" fill="#FFECC9" opacity="0.100051153" transform="translate(43.261484, 42.210906) rotate(41.000000) translate(-43.261484, -42.210906) "></path>
                    <path d="M29.4286042,55.1742588 C32.1233473,55.1742588 35.5493402,45.2939304 35.5493402,40.0800351 C35.5493402,34.8661398 35.2620025,27.1742588 32.5672594,27.1742588 C29.8725163,27.1742588 24.5493402,40.5197739 24.5493402,45.7336692 C24.5493402,50.9475644 26.7338611,55.1742588 29.4286042,55.1742588 Z" id="Oval" fill="#FFECC9" opacity="0.100051153" transform="translate(30.049340, 41.174259) rotate(41.000000) translate(-30.049340, -41.174259) "></path>
                </g>
                <path d="M129.562738,1 C131.902491,1 133.893039,1.50053566 135.524048,2.5338305 C137.14563,3.56115251 138.401339,5.11084136 139.31357,7.16261008 C141.198845,11.4029285 141.629709,17.6970046 140.68919,26.0253906 L140.68919,26.0253906 L118.466607,26.0253906 C117.516267,17.6965487 117.939714,11.4021928 119.820136,7.16172447 C120.729841,5.11028503 121.983527,3.56081641 123.603667,2.53365255 C125.233357,1.50043438 127.223175,1 129.562738,1 Z" id="Rectangle" stroke="#660028" stroke-width="2" fill="#84A240"></path>
                <path d="M251.841144,133.525391 C247.779493,159.790082 235.828688,179.705391 215.93409,193.235492 C195.462479,207.158013 166.656702,214.329899 129.55712,214.856596 C92.4772693,215.383013 63.6844844,208.747103 43.2223182,194.83119 C23.3040598,181.285177 11.3561557,160.833446 7.30423189,133.525391 L7.30423189,133.525391 Z" id="Rectangle" stroke="#630A34" stroke-width="3" fill="#D8374B"></path>
                <path d="M164.387007,144.507326 C180.374637,144.507326 203.290936,153.609946 233.135903,171.815186 L247.578412,204.025391 L168.578413,204.025391 C67.0166147,221.000651 14.8509246,221.000651 12.0813426,204.025391 C7.92696976,178.5625 18.6228576,152.89484 23.750288,148.893555 C65.7151317,116.145508 97.8949328,130.063806 98.1370067,128.541992 C98.9757924,123.268909 140.405561,144.507326 164.387007,144.507326 Z" id="Rectangle" fill="#FFB880" opacity="0.129301525" transform="translate(129.361079, 171.815186) scale(1, -1) translate(-129.361079, -171.815186) "></path>
                <path d="M234.957319,182.426042 C238.810999,191.091437 239.99915,198.274104 238.521772,203.974043 L165.578413,203.974043 C68.6896674,210.897441 17.2114448,210.897441 11.1437452,203.974043 C-1.251534,189.830716 9.19240034,155.02164 37.7620067,138.002322 C59.611344,124.986363 100.24519,127.54732 100.494429,126.822189 C101.111329,125.027387 129.113915,153.473692 180.412397,153.473692 C206.410444,153.473692 229.1768,169.427949 234.957319,182.426042 Z" id="Rectangle" fill="#FFB880" opacity="0.129301525" transform="translate(122.567952, 167.953643) scale(1, -1) translate(-122.567952, -167.953643) "></path>
                <path d="M143.754998,22.5126953 L154.810751,29.5538145 C152.278082,48.3093253 149.700635,60.355905 147.021162,65.6689607 C145.976569,66.559284 144.95615,67.4481245 143.960817,68.31514 C138.719994,72.8803203 134.236471,76.9793168 130.575561,76.9793168 C126.99405,76.9793168 123.762119,74.1051845 117.614353,68.9721517 C116.393133,67.9525031 115.063344,66.8422197 113.602577,65.6425445 C110.612601,60.3419062 107.430765,48.3174494 104.002315,29.5951655 L104.002315,29.5951655 L117.398277,22.5126953 L143.754998,22.5126953 Z" id="Rectangle" stroke="#660028" stroke-width="2" fill="#7D9335"></path>
                <path d="M102.887007,29.0536697 L114.43058,21.5126953 L136.198379,21.5126953 L136.198379,36.7406942 C135.469275,44.5885253 133.98569,51.1769137 131.747624,56.5058594 C126.181172,62.3554687 121.939129,70.8690476 114.43058,63.264576 C111.936783,57.9343912 108.088925,46.5307558 102.887007,29.0536697 Z" id="Rectangle" fill="#FFFFFF" opacity="0.0784970238"></path>
                <path d="M5.57841295,117.025391 L252.041304,117.025391 C251.306592,121.508848 250.494418,124.747282 249.60478,126.740694 C248.715142,128.734106 248.715142,130.495671 249.60478,132.025391 C243.958513,132.025391 239.91294,132.025391 237.468061,132.025391 C235.023183,132.025391 233.941152,130.358724 234.221968,127.025391 L5.57841295,127.025391 L5.57841295,117.025391 Z" id="Rectangle" fill="#000000" opacity="0.169480097"></path>
                <ellipse id="Oval" fill="#D8D8D8" opacity="0.231422061" transform="translate(125.578413, 10.025391) rotate(32.000000) translate(-125.578413, -10.025391) " cx="125.578413" cy="10.0253906" rx="4" ry="6"></ellipse>
                <ellipse id="Oval" fill="#D8D8D8" opacity="0.587379092" transform="translate(124.412236, 9.117504) rotate(32.000000) translate(-124.412236, -9.117504) " cx="124.412236" cy="9.117504" rx="2" ry="5"></ellipse>
                <ellipse id="Oval" fill="#D8D8D8" opacity="0.587379092" transform="translate(49.208784, 34.332959) rotate(72.000000) translate(-49.208784, -34.332959) " cx="49.208784" cy="34.3329587" rx="1.5" ry="4"></ellipse>
                <g id="Group-3" transform="translate(120.578413, 33.025391)" fill="#660028">
                    <circle id="Oval" cx="12" cy="28.5" r="1"></circle>
                    <circle id="Oval" cx="1" cy="22" r="1"></circle>
                    <circle id="Oval" cx="12" cy="23" r="1"></circle>
                    <circle id="Oval" cx="1" cy="16.5" r="1"></circle>
                    <circle id="Oval" cx="6.5" cy="17.5" r="1"></circle>
                    <circle id="Oval" cx="12" cy="17.5" r="1"></circle>
                    <circle id="Oval" cx="17.5" cy="17" r="1"></circle>
                    <circle id="Oval" cx="1" cy="11" r="1"></circle>
                    <circle id="Oval" cx="6.5" cy="12" r="1"></circle>
                    <circle id="Oval" cx="12" cy="12" r="1"></circle>
                    <circle id="Oval" cx="17.5" cy="11.5" r="1"></circle>
                    <circle id="Oval" cx="6.5" cy="6.5" r="1"></circle>
                    <circle id="Oval" cx="12" cy="6.5" r="1"></circle>
                    <circle id="Oval" cx="17.5" cy="6" r="1"></circle>
                    <circle id="Oval" cx="6.5" cy="1" r="1"></circle>
                    <circle id="Oval" cx="12" cy="1" r="1"></circle>
                </g>
                <line x1="76.078413" y1="105.525391" x2="116.078413" y2="105.525391" id="Line-2" stroke="#8A2C3D" stroke-width="2" stroke-linecap="square"></line>
                <line x1="78.078413" y1="103.525391" x2="78.078413" y2="106.525391" id="Line-3" stroke="#E15558" stroke-linecap="square"></line>
                <line x1="81.078413" y1="103.525391" x2="81.078413" y2="106.525391" id="Line-3" stroke="#E15558" stroke-linecap="square"></line>
                <path d="M135.159309,100.955464 L129.078413,109.874112 L122.997517,100.955464 L135.159309,100.955464 Z" id="Rectangle" stroke="#660028" stroke-width="1.5" fill-opacity="0.734238418" fill="#FFFFFF"></path>
            </g>
        </g>
    </g>
</svg>