<?xml version="1.0" encoding="UTF-8"?>
<svg
  width="291px"
  height="160px"
  viewBox="0 0 291 160"
  version="1.1"
  xmlns="http://www.w3.org/2000/svg"
  xmlns:xlink="http://www.w3.org/1999/xlink"
>
  <title>mouth-cdnstxyz</title>
  <g id="Page-1" stroke="none" stroke-width="1" fill="none" fill-rule="evenodd">
    <g id="Artboard" transform="translate(-1068.000000, -1217.000000)">
      <g id="mouth-cdnstxyz" transform="translate(1068.000000, 1217.000000)">
        <path
          d="M243.171341,105.605798 C231.505082,112.001768 217.331059,116.377958 204.232282,119.366408 C183.342259,124.134188 162.431624,124.439903 141.084706,124.439903 C133.049553,124.439903 125.275482,123.337268 117.415529,122.986898 C113.983671,122.835758 108.8376,124.285328 104.842353,124.285328 L105.728659,124.439903 C97.4049412,124.989503 87.5868706,120.740408 79.5208,119.057258 C72.5265412,117.597383 65.0204235,115.952018 58.1773176,114.155513 C48.0775529,111.507128 30.3892235,103.383353 36.0918118,91.0001784 C39.9874353,82.5294684 46.8511529,75.5632884 52.9488,68.3772684 C65.2608941,53.8643934 81.5167059,43.0235334 100.871153,39.3893034 C129.679529,33.9791784 158.862353,34.2642834 187.457741,39.5988384 C193.861129,40.7942184 200.893176,41.8281534 206.410259,45.3455934 C210.195953,47.7569634 212.810212,51.5182884 216.121835,54.4655184 C220.577412,58.4260734 225.421176,61.7374134 229.038541,66.4777134 C234.899153,74.1515034 242.367482,80.5955634 248.015106,88.3930134 C252.7936,94.9916484 250.079718,101.813558 243.171341,105.605798"
          id="path70"
          fill="#755946"
          fill-rule="nonzero"
          transform="translate(142.702890, 79.975639) scale(-1, 1) rotate(-180.000000) translate(-142.702890, -79.975639) "
        ></path>
        <path
          d="M192.662212,80.0035439 C181.236424,84.8812439 168.299106,84.0190589 156.045412,84.0293639 C139.679671,84.0465389 123.124988,82.7206289 106.906965,81.1336589 C103.8736,80.8382489 100.647859,80.9035139 97.6763294,80.3264339 C95.4949176,79.9039289 93.2448,78.2482589 91.0736941,79.0623539 L86.5219294,74.9266139 C80.864,69.3481739 88.6002824,61.9354439 93.5505412,60.0255839 C103.1144,56.3398289 114.914635,57.9577139 125.127765,57.9577139 C142.956941,57.9577139 161.030024,58.0298489 178.498494,60.3484739 C183.909082,61.0663889 194.414212,60.2969489 198.282353,64.5700889 C203.9128,70.7805689 198.849176,77.3654639 192.662212,80.0035439"
          id="path72"
          fill="#ED7D77"
          fill-rule="nonzero"
          transform="translate(142.629165, 70.843092) scale(-1, 1) rotate(-180.000000) translate(-142.629165, -70.843092) "
        ></path>
        <path
          d="M233.648706,55.6469006 C233.648706,55.6469006 217.921929,61.2803006 216.266118,61.6925006 C214.610306,62.1081356 141.459153,71.6265206 141.459153,71.6265206 C141.459153,71.6265206 68.3114353,62.1081356 66.6556235,61.6925006 C64.9998118,61.2803006 49.2730353,55.6469006 49.2730353,55.6469006 C49.2730353,55.6469006 46.3736471,36.8608856 49.2730353,34.3773806 C52.1689882,31.8938756 57.6276706,33.2060456 88.1777412,35.4147506 C125.430071,38.1043556 160.195247,38.9321906 194.135953,36.2425856 C224.668847,33.8209106 230.752753,31.8938756 233.648706,34.3773806 C236.544659,36.8608856 233.648706,55.6469006 233.648706,55.6469006"
          id="path74"
          fill="#FFFFFF"
          fill-rule="nonzero"
          transform="translate(141.460107, 52.328913) scale(-1, 1) rotate(-180.000000) translate(-141.460107, -52.328913) "
        ></path>
        <path
          d="M233.648706,50.1668069 C233.648706,50.1668069 217.921929,54.0243119 216.266118,54.3094169 C214.610306,54.5910869 141.459153,61.1141519 141.459153,61.1141519 C141.459153,61.1141519 68.3114353,54.5910869 66.6556235,54.3094169 C64.9998118,54.0243119 49.2730353,50.1668069 49.2730353,50.1668069 C49.2730353,50.1668069 46.3736471,37.2958619 49.2730353,35.5955369 C52.1689882,33.8917769 56.0955294,34.7196119 86.3158118,39.3843419 C124.186494,45.2341469 163.311059,45.2341469 197.859812,39.3843419 C228.011388,34.2833669 230.752753,33.8917769 233.648706,35.5955369 C236.544659,37.2958619 233.648706,50.1668069 233.648706,50.1668069"
          id="path76"
          fill="#DBDBDB"
          fill-rule="nonzero"
          transform="translate(141.460107, 47.900563) scale(-1, 1) rotate(-180.000000) translate(-141.460107, -47.900563) "
        ></path>
        <path
          d="M253.7864,26.6460217 C253.315765,33.2549617 231.882965,48.5407117 203.651718,56.2076317 C175.423906,63.8711167 142.025976,63.8711167 142.025976,63.8711167 C142.025976,63.8711167 108.631482,63.8711167 80.4002353,56.2076317 C52.1689882,48.5407117 32.4263529,34.4572117 31.7496,27.8654467 C31.1587294,22.0774717 35.1986353,26.6460217 35.1986353,26.6460217 C35.6143059,31.3897567 60.8602824,37.9574767 88.1777412,41.6088817 C115.4952,45.2568517 142.025976,45.2568517 142.025976,45.2568517 C142.025976,45.2568517 168.560188,45.2568517 195.877647,41.6088817 C223.191671,37.9574767 248.441082,31.3897567 248.853318,26.6460217 C248.853318,26.6460217 254.126494,21.9228967 253.7864,26.6460217"
          id="path78"
          fill="#EF615B"
          fill-rule="nonzero"
          transform="translate(142.746372, 44.208986) scale(-1, 1) rotate(-180.000000) translate(-142.746372, -44.208986) "
        ></path>
        <path
          d="M240.076141,116.88996 C240.076141,116.88996 221.037741,114.818655 201.171435,114.406455 C184.314447,114.05265 101.891435,114.111045 87.7655059,114.406455 C67.8992,114.818655 48.8573647,115.23429 48.8573647,115.23429 L89.4556706,80.41713 L143.135576,76.600845 L143.135576,76.59054 L143.218024,76.59741 L147.680471,76.277955 L147.659859,76.958085 L201.082118,81.299925 L240.076141,116.88996"
          id="path80"
          fill="#FFFFFF"
          fill-rule="nonzero"
          transform="translate(144.466753, 96.583957) scale(-1, 1) rotate(-180.000000) translate(-144.466753, -96.583957) "
        ></path>
        <path
          d="M250.897318,131.918085 C241.278494,117.628485 213.497271,93.36021 196.805176,88.24893 C176.152188,81.925095 107.350118,82.21707 87.9681882,88.238625 C71.2108235,93.439215 43.3437176,118.03725 33.9344471,132.330285 C33.9344471,132.330285 31.4782118,126.15759 31.9316706,125.44998 C43.0654588,107.976135 60.1148235,81.135045 77.7756706,71.2869 C102.094118,57.728955 142.489741,56.45457 142.489741,56.45457 C146.526212,56.622885 183.874729,58.532745 206.915247,71.25942 C224.747859,81.111 250.244612,115.17246 253.741741,125.961795 C253.837929,126.25377 250.897318,131.918085 250.897318,131.918085"
          id="path82"
          fill="#EF615B"
          fill-rule="nonzero"
          transform="translate(142.809930, 94.392427) scale(-1, 1) rotate(-180.000000) translate(-142.809930, -94.392427) "
        ></path>
        <path
          d="M27.2287529,59.4215323 C26.7821647,65.5289623 28.9773176,69.0120523 27.3249412,70.5234523 C24.6797647,72.9485623 22.5533176,67.6552273 22.3918588,65.6697973 C22.0964235,62.1317473 24.4015059,48.4913623 30.3445647,50.9886073 C32.6187294,52.2286423 27.2287529,59.4215323 27.2287529,59.4215323"
          id="path84"
          fill="#755946"
          fill-rule="nonzero"
          transform="translate(26.635602, 60.916196) scale(-1, 1) rotate(-180.000000) translate(-26.635602, -60.916196) "
        ></path>
        <path
          d="M261.330306,63.3657826 C261.295953,65.6260126 260.856235,67.5324376 259.578306,69.1915426 C258.970259,69.9815926 258.101129,71.0670526 257.166729,71.4208576 L257.163294,71.4689476 C257.125506,71.4689476 257.091153,71.4620776 257.0568,71.4586426 C256.541506,71.6200876 256.009035,71.5513876 255.486871,71.0876626 C254.490635,70.1979976 254.628047,69.0816226 255.163953,67.9308976 C255.229224,67.3847326 255.3632,66.8488726 255.545271,66.3817126 C256.431576,64.0733926 257.647671,62.3627626 257.688894,59.6319376 C257.736988,56.7877576 256.891906,54.4107376 256.053694,51.8516626 C255.809788,51.1097026 255.139906,49.5605176 255.854447,48.9250426 C256.582729,48.2758276 257.637365,49.3956376 258.087388,50.0482876 C260.488659,53.5416826 261.399012,59.0308126 261.330306,63.3657826"
          id="path86"
          fill="#755946"
          fill-rule="nonzero"
          transform="translate(258.041316, 60.133451) scale(-1, 1) rotate(-180.000000) translate(-258.041316, -60.133451) "
        ></path>
      </g>
    </g>
  </g>
</svg>
