<?xml version="1.0" encoding="UTF-8"?>
<svg
  width="291px"
  height="160px"
  viewBox="0 0 291 160"
  version="1.1"
  xmlns="http://www.w3.org/2000/svg"
  xmlns:xlink="http://www.w3.org/1999/xlink"
>
  <title>mouth-fv</title>
  <g id="Page-1" stroke="none" stroke-width="1" fill="none" fill-rule="evenodd">
    <g id="Artboard" transform="translate(-1068.000000, -1448.000000)">
      <g id="mouth-fv" transform="translate(1068.000000, 1448.000000)">
        <path
          d="M199.212471,99.5349259 C178.7656,104.697731 157.315624,107.112536 135.408753,107.112536 C111.286118,107.112536 86.7546824,100.379936 66.5654588,86.7601609 C53.2743059,77.7913759 35.9638588,55.9241659 35.9638588,55.9241659 C36.6028235,43.6749559 79.2760471,49.3220959 87.2940235,49.3152259 C127.538494,49.2705709 168.789506,48.0030559 209.1336,49.3152259 C220.020047,49.6690309 242.8304,46.5191359 251.044188,52.5200809 C258.880094,58.2462259 217.323341,94.9595059 199.212471,99.5349259"
          id="path88"
          fill="#755946"
          fill-rule="nonzero"
          transform="translate(143.990185, 77.567040) scale(-1, 1) rotate(-180.000000) translate(-143.990185, -77.567040) "
        ></path>
        <path
          d="M257.0216,103.516455 C257.684612,98.322735 237.969459,95.773965 206.378494,96.989955 C165.316424,98.570055 133.728894,99.8307 86.0332706,97.305975 C55.4282353,95.684655 32.4873412,98.60784 31.5117176,103.750035 C30.5326588,108.888795 255.757412,113.41269 257.0216,103.516455"
          id="path90"
          fill="#EF615B"
          fill-rule="nonzero"
          transform="translate(144.273175, 103.036030) scale(-1, 1) rotate(-180.000000) translate(-144.273175, -103.036030) "
        ></path>
        <path
          d="M229.552988,76.9453608 C229.552988,76.9453608 216.402682,88.6587108 214.746871,89.0743458 C213.091059,89.4865458 143.3752,99.9083358 143.3752,99.9083358 C143.3752,99.9083358 70.5984941,88.4903958 68.9426824,88.0747608 C67.2868706,87.6625608 57.1458824,77.0312358 57.1458824,77.0312358 C57.1458824,77.0312358 52.1063059,62.2469958 55.0022588,59.7634908 C57.8982118,57.2799858 59.4921882,57.5582208 90.0422588,59.7634908 C127.291153,62.4530958 160.534494,63.1400958 194.4752,60.4504908 C225.008094,58.0322508 228.336894,58.6539858 231.232847,61.1374908 C234.1288,63.6209958 229.552988,76.9453608 229.552988,76.9453608"
          id="path92"
          fill="#FFFFFF"
          fill-rule="nonzero"
          transform="translate(143.149108, 78.955995) scale(-1, 1) rotate(-180.000000) translate(-143.149108, -78.955995) "
        ></path>
        <path
          d="M228.484612,73.28597 C228.484612,73.28597 215.069788,80.310545 213.413976,80.592215 C211.758165,80.87732 143.938588,90.248 143.938588,90.248 C143.938588,90.248 77.4828235,83.3093 76.0193882,82.488335 C70.8046118,79.56515 58.2657882,73.2104 58.2657882,73.2104 C58.2657882,73.2104 53.2846118,59.8139 54.8304941,59.1269 C54.8304941,59.1269 58.5715294,63.85346 88.7952471,68.51819 C126.665929,74.367995 165.790494,74.367995 200.335812,68.51819 C230.487388,63.417215 231.397741,62.05352 231.397741,62.05352 L228.484612,73.28597"
          id="path94"
          fill="#DBDBDB"
          fill-rule="nonzero"
          transform="translate(142.965349, 74.687450) scale(-1, 1) rotate(-180.000000) translate(-142.965349, -74.687450) "
        ></path>
        <path
          d="M252.8752,44.5754949 C243.201412,58.8273099 215.825553,75.6485049 199.112847,80.6979549 C178.435812,86.9427849 105.714071,85.8435849 86.3527529,79.7498949 C69.6194353,74.4840399 45.8368941,62.2004799 36.4791529,47.8696599 C36.4791529,47.8696599 31.2918588,46.4578749 31.5117176,47.2719699 C36.7745882,66.8514699 63.0477176,84.5211099 80.6673412,94.4379549 C104.934259,108.088645 182.180282,108.49741 205.272329,95.8566099 C223.139294,86.0771649 253.661882,61.1940249 257.032819,47.0864799 C257.104047,46.7876349 252.8752,44.5754949 252.8752,44.5754949"
          id="path96"
          fill="#EF615B"
          fill-rule="nonzero"
          transform="translate(144.268870, 74.796997) scale(-1, 1) rotate(-180.000000) translate(-144.268870, -74.796997) "
        ></path>
      </g>
    </g>
  </g>
</svg>
