<?xml version="1.0" encoding="UTF-8"?>
<svg
  width="291px"
  height="160px"
  viewBox="0 0 291 160"
  version="1.1"
  xmlns="http://www.w3.org/2000/svg"
  xmlns:xlink="http://www.w3.org/1999/xlink"
>
  <title>mouth-l</title>
  <g id="Page-1" stroke="none" stroke-width="1" fill="none" fill-rule="evenodd">
    <g id="Artboard" transform="translate(-484.000000, -1448.000000)">
      <g id="mouth-l" transform="translate(484.000000, 1448.000000)">
        <path
          d="M206.779699,139.521 C185.98552,145.370805 100.552504,141.91176 100.552504,141.91176 C92.2665741,142.58502 42.0130306,109.055985 38.9415341,92.7637796 C38.2019153,88.8410096 84.6141129,45.8176346 103.881304,41.3555696 C132.562574,34.7122796 161.612795,35.0660846 190.080047,41.6166296 C196.456984,43.0833746 236.264828,71.7140996 239.867421,77.5329896 C245.699864,86.9517596 249.000494,86.7250496 253.545732,96.7964696 C256.375727,103.06878 219.819388,135.85242 206.779699,139.521"
          id="path142"
          fill="#755946"
          fill-rule="nonzero"
          transform="translate(146.317042, 89.731505) scale(-1, 1) rotate(-180.000000) translate(-146.317042, -89.731505) "
        ></path>
        <path
          d="M92.28856,71.9265 C105.135186,63.005805 116.467534,59.6979 147.264946,59.6979 C169.534584,59.6979 188.69528,65.16642 201.547402,74.01498 C199.827007,82.82232 191.716278,122.92938 145.805976,118.151295 C90.0786353,112.353015 95.7300376,79.91631 92.28856,71.9265"
          id="path144"
          fill="#ED7D77"
          fill-rule="nonzero"
          transform="translate(146.917981, 89.121507) scale(-1, 1) rotate(-180.000000) translate(-146.917981, -89.121507) "
        ></path>
        <path
          d="M222.416471,134.667601 C222.416471,134.667601 223.510955,135.959161 203.732936,135.567571 C186.953586,135.234376 104.897464,135.289336 90.8333694,135.567571 C71.0553506,135.959161 66.7691341,135.564136 66.7691341,135.564136 L63.4678165,120.783331 L145.956442,99.8195261 L145.956442,99.8092211 L146.040607,99.8126561 L150.481412,99.5138111 L150.460456,100.156156 L230.434447,120.783331 L222.416471,134.667601"
          id="path146"
          fill="#FFFFFF"
          fill-rule="nonzero"
          transform="translate(146.951132, 117.627268) scale(-1, 1) rotate(-180.000000) translate(-146.951132, -117.627268) "
        ></path>
        <path
          d="M254.456428,150.34291 C244.881576,136.82962 216.003807,113.241475 199.385228,108.40843 C178.82568,102.428095 110.333129,102.70633 91.0346776,108.398125 C74.3542635,113.317045 47.04024,136.427725 37.6721929,149.94445 C37.6721929,149.94445 33.6302259,144.98431 34.0799059,144.314485 C45.1642259,127.7887 63.3073882,101.679265 80.8885365,92.370415 C105.098085,79.54756 145.313012,78.341875 145.313012,78.341875 C149.332993,78.50332 186.513181,80.31013 209.451671,92.342935 C227.203209,101.658655 253.006734,137.059765 257.569492,146.306785 C257.699346,146.567845 254.456428,150.34291 254.456428,150.34291"
          id="path148"
          fill="#EF615B"
          fill-rule="nonzero"
          transform="translate(145.809138, 114.342393) scale(-1, 1) rotate(-180.000000) translate(-145.809138, -114.342393) "
        ></path>
        <path
          d="M234.481911,50.1651551 C234.481911,50.1651551 222.294861,63.8879801 220.646951,64.2795701 C218.998696,64.6711601 146.176301,73.6742951 146.176301,73.6742951 C146.176301,73.6742951 73.3539059,64.6711601 71.7056518,64.2795701 C70.0573976,63.8879801 62.1610306,52.5559151 62.1610306,52.5559151 C62.1610306,52.5559151 51.5157412,40.8013451 54.4000141,38.4518051 C57.2842871,36.1057001 62.7172047,37.3457351 93.1319247,39.4307801 C130.215581,41.9761151 164.8272,42.7558601 198.614692,40.2139601 C229.013266,37.9262501 235.068315,36.1057001 237.952588,38.4518051 C240.836861,40.8013451 234.481911,50.1651551 234.481911,50.1651551"
          id="path150"
          fill="#FFFFFF"
          fill-rule="nonzero"
          transform="translate(146.303911, 55.427283) scale(-1, 1) rotate(-180.000000) translate(-146.303911, -55.427283) "
        ></path>
        <path
          d="M229.491115,44.3323799 C229.491115,44.3323799 222.294861,53.7751949 220.646951,54.0431249 C218.998696,54.3110549 146.070151,63.2180099 146.070151,63.2180099 C146.070151,63.2180099 73.3539059,54.3110549 71.7056518,54.0431249 C70.0573976,53.7751949 64.4111482,46.1220149 64.4111482,46.1220149 C64.4111482,46.1220149 51.5157412,37.9535849 54.4000141,36.3460049 C57.2842871,34.7384249 62.2620282,40.6947149 92.3486776,45.1052549 C130.050687,50.6356049 171.158791,49.4402249 205.552268,43.9098749 C235.568494,39.0836999 235.068315,34.7384249 237.952588,36.3460049 C240.836861,37.9535849 229.491115,44.3323799 229.491115,44.3323799"
          id="path152"
          fill="#DBDBDB"
          fill-rule="nonzero"
          transform="translate(146.200793, 49.611755) scale(-1, 1) rotate(-180.000000) translate(-146.200793, -49.611755) "
        ></path>
        <path
          d="M253.862466,27.2608343 C244.232993,40.7363393 217.787412,66.0935093 201.149939,70.8647243 C180.566344,76.7729243 113.510776,76.6286543 94.2353412,70.8647243 C77.5751953,65.8839743 47.1848659,39.6337043 37.8710965,26.0826293 C37.8710965,26.0826293 34.4443906,31.5374093 34.8913224,32.2072343 C45.9086541,48.7742393 66.2057459,69.8239193 83.7491059,79.1980343 C107.906781,92.1101993 184.808245,91.5983843 207.794828,79.6480193 C225.583812,70.3975643 252.507929,42.0897293 257.107788,32.8598843 C257.238329,32.5988243 253.862466,27.2608343 253.862466,27.2608343"
          id="path154"
          fill="#EF615B"
          fill-rule="nonzero"
          transform="translate(145.981298, 57.414560) scale(-1, 1) rotate(-180.000000) translate(-145.981298, -57.414560) "
        ></path>
        <path
          d="M143.935802,8.12742416 C137.748838,10.5594042 132.037661,14.6023992 132.456767,21.6716292 C130.555332,18.7415742 128.196315,12.7578042 128.196315,12.7578042 C120.172842,0.182269163 156.305609,2.91652916 162.721708,3.31842416 C159.061402,6.84960416 149.163976,6.07329416 143.935802,8.12742416"
          id="path156"
          fill="#755946"
          fill-rule="nonzero"
          transform="translate(144.880849, 12.232057) scale(-1, 1) rotate(-180.000000) translate(-144.880849, -12.232057) "
        ></path>
      </g>
    </g>
  </g>
</svg>
