<?xml version="1.0" encoding="UTF-8"?>
<svg
  width="291px"
  height="160px"
  viewBox="0 0 291 160"
  version="1.1"
  xmlns="http://www.w3.org/2000/svg"
  xmlns:xlink="http://www.w3.org/1999/xlink"
>
  <title>mouth-th</title>
  <g id="Page-1" stroke="none" stroke-width="1" fill="none" fill-rule="evenodd">
    <g id="Artboard" transform="translate(-484.000000, -1655.000000)">
      <g id="mouth-th" transform="translate(484.000000, 1655.000000)">
        <path
          d="M252.509002,64.8463497 C251.507271,67.2542847 249.581788,72.3415197 245.868579,71.5480347 C244.119327,71.1736197 243.352569,69.6690897 243.236456,67.9859397 C241.240551,63.5066997 248.368786,55.5512397 250.121816,52.2914247 C251.566014,49.6052547 251.156527,44.6794647 252.822301,42.6425097 C255.873873,38.9155347 256.886941,43.3398147 257.162108,46.4313147 C257.720344,52.7036247 254.841567,59.2335597 252.509002,64.8463497"
          id="path52"
          fill="#755946"
          fill-rule="nonzero"
          transform="translate(250.059712, 56.425402) scale(-1, 1) rotate(-180.000000) translate(-250.059712, -56.425402) "
        ></path>
        <path
          d="M26.2906936,51.0738587 C24.7747327,48.1850237 25.9719671,42.4073537 30.6405318,44.0458487 C33.8308894,45.1622237 33.6467576,51.0395087 34.1988094,53.5642337 C35.0607247,57.5041787 37.0037271,61.1384087 39.4187388,64.3501337 C41.2366965,66.7683737 46.5267059,69.9800987 46.17768,73.1815187 C35.14008,77.4271787 22.9278499,56.1233087 26.2906936,47.3090987 L26.2906936,51.0738587"
          id="path54"
          fill="#755946"
          fill-rule="nonzero"
          transform="translate(35.932611, 58.746674) scale(-1, 1) rotate(-180.000000) translate(-35.932611, -58.746674) "
        ></path>
        <path
          d="M237.116824,104.91944 C226.432715,110.570015 213.447304,114.437825 201.449539,117.075905 C182.317012,121.287215 73.17016,111.59021 66.8945647,110.034155 C45.9653788,104.837 35.8614918,99.4990095 62.8790494,72.0327495 C74.85208,59.8591095 89.0460282,49.6365495 106.77352,46.4248245 C133.163106,41.6467395 160.046,41.1108795 186.084499,46.6137495 C213.688461,52.4463795 236.381327,82.8289545 241.554536,89.7161295 C245.932132,95.5418895 243.446696,101.570315 237.116824,104.91944"
          id="path56"
          fill="#755946"
          fill-rule="nonzero"
          transform="translate(145.142783, 80.395022) scale(-1, 1) rotate(-180.000000) translate(-145.142783, -80.395022) "
        ></path>
        <path
          d="M191.215111,77.5825148 C180.920908,82.2609848 169.050249,81.9209198 157.83264,82.3296848 C142.852696,82.8792848 127.654268,82.2506798 112.756428,81.3816248 C109.968,81.2167448 107.0188,81.3816248 104.279496,80.9694248 C102.268819,80.6671448 100.15096,79.2794048 98.19456,80.0694548 L93.8867012,76.5657548 C88.5166494,71.8288898 95.3467012,65.0310248 99.8132706,63.1829948 C108.444791,59.6174648 119.299289,60.6582698 128.649129,60.3250748 C144.968151,59.7411248 161.513901,59.2155698 177.583176,60.6926198 C182.560918,61.1494748 192.149511,60.1258448 195.836612,63.7703798 C201.199106,69.0671498 196.787501,75.0474848 191.215111,77.5825148"
          id="path58"
          fill="#ED7D77"
          fill-rule="nonzero"
          transform="translate(145.090260, 71.135382) scale(-1, 1) rotate(-180.000000) translate(-145.090260, -71.135382) "
        ></path>
        <path
          d="M228.395642,59.2087246 C228.395642,59.2087246 213.989393,64.1826046 212.472711,64.5501496 C210.956372,64.9142596 143.610179,71.1350446 143.610179,71.1350446 C143.610179,71.1350446 76.9496706,64.9142596 75.4329882,64.5501496 C73.9166494,64.1826046 59.5100565,59.2087246 59.5100565,59.2087246 C59.5100565,59.2087246 56.8562918,42.6142396 59.5100565,40.4192746 C62.1638212,38.2277446 67.1628612,39.3853396 95.1471106,41.3364196 C129.267826,43.7134396 161.113689,44.4416596 192.20104,42.0680746 C220.170518,39.9280696 225.741878,38.2277446 228.395642,40.4192746 C231.049407,42.6142396 228.395642,59.2087246 228.395642,59.2087246"
          id="path60"
          fill="#FFFFFF"
          fill-rule="nonzero"
          transform="translate(143.952849, 55.183255) scale(-1, 1) rotate(-180.000000) translate(-143.952849, -55.183255) "
        ></path>
        <path
          d="M228.395642,55.5252506 C228.395642,55.5252506 213.989393,58.9362056 212.472711,59.1869606 C210.956372,59.4377156 143.953021,65.1982106 143.953021,65.1982106 C143.953021,65.1982106 76.9496706,59.4377156 75.4329882,59.1869606 C73.9166494,58.9362056 59.5100565,55.5252506 59.5100565,55.5252506 C59.5100565,55.5252506 56.8562918,44.1554006 59.5100565,42.6543056 C62.1638212,41.1497756 65.7585129,41.8814306 93.4411435,46.0034306 C128.1304,51.1696706 163.968075,51.1696706 195.612974,46.0034306 C223.231021,41.4967106 225.741878,41.1497756 228.395642,42.6543056 C231.049407,44.1554006 228.395642,55.5252506 228.395642,55.5252506"
          id="path62"
          fill="#DBDBDB"
          fill-rule="nonzero"
          transform="translate(143.952849, 53.525290) scale(-1, 1) rotate(-180.000000) translate(-143.952849, -53.525290) "
        ></path>
        <path
          d="M247.204221,40.0603134 C246.415134,45.8654634 226.171289,53.4774234 200.312113,60.2478084 C174.452936,67.0147584 121.763769,65.3247384 88.7821976,60.2478084 C62.3221882,56.1738984 43.4404376,46.3120134 42.7025365,40.4999934 C42.0642588,35.4745884 46.6201459,39.6515484 46.6201459,39.6515484 C46.9994024,43.8422484 70.7039624,45.3330384 95.7256141,48.5585034 C120.747266,51.7805334 169.648678,51.7805334 194.670673,48.5585034 C219.692325,45.3330384 241.944099,43.8422484 242.323355,39.6515484 C242.323355,39.6515484 247.993308,34.2585984 247.204221,40.0603134"
          id="path64"
          fill="#EF615B"
          fill-rule="nonzero"
          transform="translate(144.960392, 51.041502) scale(-1, 1) rotate(-180.000000) translate(-144.960392, -51.041502) "
        ></path>
        <path
          d="M234.283049,113.63013 C234.283049,113.63013 216.843779,111.80271 198.646339,111.4386 C183.207784,111.126015 107.708607,111.17754 94.7678541,111.4386 C76.5704141,111.80271 59.1311435,112.170255 59.1311435,112.170255 L96.3171718,81.413265 L145.486536,78.04353 L145.486193,78.033225 L145.564174,78.040095 L149.650113,77.758425 L149.630188,78.356115 L198.56664,82.19301 L234.283049,113.63013"
          id="path66"
          fill="#FFFFFF"
          fill-rule="nonzero"
          transform="translate(146.707096, 95.694277) scale(-1, 1) rotate(-180.000000) translate(-146.707096, -95.694277) "
        ></path>
        <path
          d="M244.073294,123.10793 C235.263482,110.484305 217.879176,88.1705453 202.589026,83.6569553 C183.671892,78.0682103 109.567788,76.6632953 91.81144,81.9806753 C76.46392,86.5767053 54.0788565,112.194935 45.45936,124.821995 C45.45936,124.821995 42.3267153,119.717585 42.7403247,119.08898 C52.9386824,103.65209 67.2099247,76.9484003 83.3860376,68.2509803 C105.661172,56.2731353 144.894635,57.7948403 144.894635,57.7948403 C148.593416,57.9459803 192.477925,57.0082253 213.583341,68.2509803 C229.916447,76.9518353 243.005948,110.13737 247.204221,118.776395 C247.323426,119.02028 244.073294,123.10793 244.073294,123.10793"
          id="path68"
          fill="#EF615B"
          fill-rule="nonzero"
          transform="translate(144.955059, 91.277185) scale(-1, 1) rotate(-180.000000) translate(-144.955059, -91.277185) "
        ></path>
      </g>
    </g>
  </g>
</svg>
