<?xml version="1.0" encoding="UTF-8"?>
<svg
  width="291px"
  height="160px"
  viewBox="0 0 291 160"
  version="1.1"
  xmlns="http://www.w3.org/2000/svg"
  xmlns:xlink="http://www.w3.org/1999/xlink"
>
  <title>mouth-aei</title>
  <path
    d="M247.135144,104.030022 C234.966645,111.027117 220.176673,115.815507 206.51176,119.085627 C184.720659,124.296522 162.902762,124.633152 140.635186,124.633152 C132.251351,124.633152 124.140278,123.427467 115.941605,123.046182 C112.358249,122.877867 106.990259,124.464837 102.821873,124.464837 L103.747341,124.633152 C95.0642918,125.234277 84.8205882,120.586722 76.4058353,118.748997 C69.1096141,117.151722 61.2792047,115.348347 54.1392894,113.383527 C43.6011812,110.484387 25.8434245,101.591172 31.7913271,88.043532 C35.8583718,78.779337 42.3225647,71.170812 48.68576,63.308097 C61.5310118,47.431527 78.4886541,35.573907 98.6799388,31.599612 C128.736358,25.681107 159.179247,25.993692 189.011341,31.829757 C195.694019,33.138492 203.030089,34.268607 208.784894,38.112372 C212.733765,40.753887 215.460701,44.865582 218.917638,48.091047 C223.566621,52.426017 228.617878,56.043072 232.393609,61.229922 C238.505341,69.625062 246.297275,76.673682 252.189492,85.202787 C257.175478,92.419722 254.344452,99.883977 247.135144,104.030022"
    id="path34"
    fill="green"
    fill-rule="nonzero"
    className="mouth-background"
    transform="translate(142.650953, 75.995391) scale(-1, 1) rotate(-180.000000) translate(-142.650953, -75.995391) "
  ></path>
  <path
    d="M95.1773129,89.7034393 C107.630254,80.6006893 118.615981,77.2240843 148.470748,77.2240843 C170.058824,77.2240843 188.632772,82.8059593 201.091553,91.8365743 C199.423718,100.822534 174.872358,108.784864 161.540325,105.298339 C146.947882,101.485489 129.531628,106.229224 120.422259,104.154484 C110.432424,101.873644 98.5133271,97.8581293 95.1773129,89.7034393"
    id="path36"
    fill="#ED7D77"
    fill-rule="nonzero"
    transform="translate(148.134433, 91.680002) scale(-1, 1) rotate(-180.000000) translate(-148.134433, -91.680002) "
  ></path>
  <path
    d="M235.978682,48.166227 C235.978682,48.166227 219.999755,53.888937 218.317835,54.308007 C216.635915,54.730512 142.320885,64.400037 142.320885,64.400037 C142.320885,64.400037 68.0058541,54.730512 66.3239341,54.308007 C64.6420141,53.888937 48.6634306,48.166227 48.6634306,48.166227 C48.6634306,48.166227 45.7200706,29.081367 48.6634306,26.560077 C51.6067906,24.035352 55.9064047,27.463482 86.9277976,29.922942 C121.407845,32.653767 142.320885,32.234697 142.320885,32.234697 C142.320885,32.234697 163.233925,32.653767 197.713972,29.922942 C228.735708,27.463482 233.034979,24.035352 235.978682,26.560077 C238.922042,29.081367 235.978682,48.166227 235.978682,48.166227"
    id="path38"
    fill="#FFFFFF"
    fill-rule="nonzero"
    transform="translate(142.321056, 45.037259) scale(-1, 1) rotate(-180.000000) translate(-142.321056, -45.037259) "
  ></path>
  <path
    d="M235.978682,43.0831151 C235.978682,43.0831151 219.999755,47.0058851 218.317835,47.2909901 C216.635915,47.5795301 142.320885,54.2056451 142.320885,54.2056451 C142.320885,54.2056451 68.0058541,47.5795301 66.3239341,47.2909901 C64.6420141,47.0058851 48.6634306,43.0831151 48.6634306,43.0831151 C48.6634306,43.0831151 45.7200706,30.0095051 48.6634306,28.2782651 C51.6067906,26.5504601 55.5934494,27.3920351 86.2970776,32.1323351 C124.771685,38.0748851 164.520099,38.0748851 199.618499,32.1323351 C230.250329,26.9489201 233.034979,26.5504601 235.978682,28.2782651 C238.922042,30.0095051 235.978682,43.0831151 235.978682,43.0831151"
    id="path40"
    fill="#DBDBDB"
    fill-rule="nonzero"
    transform="translate(142.321056, 40.781638) scale(-1, 1) rotate(-180.000000) translate(-142.321056, -40.781638) "
  ></path>
  <path
    d="M256.437576,20.0223783 C255.562264,26.6931483 234.185802,42.2674383 205.504875,50.0511483 C176.823948,57.8382933 142.896296,57.8382933 142.896296,57.8382933 C142.896296,57.8382933 108.968645,57.8382933 80.2877176,50.0511483 C51.6067906,42.2674383 30.2303294,26.6931483 29.3550165,20.0223783 C28.4800471,13.3481733 34.3667671,20.0223783 34.3667671,20.0223783 C34.7872471,24.8416833 60.4372141,31.5158883 88.1892376,35.2222533 C115.941605,38.9286183 142.896296,38.9286183 142.896296,38.9286183 C142.896296,38.9286183 169.851332,38.9286183 197.603699,35.2222533 C225.355722,31.5158883 251.005346,24.8416833 251.425826,20.0223783 C251.425826,20.0223783 257.312889,13.3481733 256.437576,20.0223783"
    id="path42"
    fill="#EF615B"
    fill-rule="nonzero"
    transform="translate(142.896327, 37.447179) scale(-1, 1) rotate(-180.000000) translate(-142.896327, -37.447179) "
  ></path>
  <path
    d="M237.286499,121.38045 C237.286499,121.38045 219.650729,112.500975 202.67488,110.23044 C185.699031,107.959905 142.412951,107.11146 142.412951,107.11146 C142.412951,107.11146 99.3776471,107.554575 85.1294212,109.30986 C68.0604753,111.41208 50.2385129,120.11637 50.2385129,120.11637 L87.3843482,82.822575 L141.919642,78.94446 L141.919299,78.934155 L142.005525,78.941025 L146.537021,78.618135 L146.515722,79.305135 L200.791652,83.71911 L237.286499,121.38045"
    id="path44"
    fill="#FFFFFF"
    fill-rule="nonzero"
    transform="translate(143.762506, 99.999292) scale(-1, 1) rotate(-180.000000) translate(-143.762506, -99.999292) "
  ></path>
  <path
    d="M251.425826,138.718151 C252.201172,128.763521 216.213718,90.8342508 196.088047,84.4073658 C175.961689,77.9839158 108.91368,78.2827608 90.0219671,84.3970608 C69.9251529,90.9029508 33.5467624,128.766956 34.3667671,138.718151 C34.3667671,138.718151 30.1416988,146.388506 29.3550165,137.203316 C28.5676471,128.021561 56.3904376,80.9517558 80.0898447,67.1774058 C103.788908,53.3996208 143.155318,51.8710458 143.155318,51.8710458 L143.156005,52.1046258 C147.091134,52.2798108 183.487045,54.2205858 205.941845,67.1499258 C229.703431,80.8315308 258.252786,127.846376 256.993407,136.976606 C255.944268,144.585131 251.425826,138.718151 251.425826,138.718151 Z"
    id="path46"
    fill="#EF615B"
    fill-rule="nonzero"
    transform="translate(143.186162, 96.795065) scale(-1, 1) rotate(-180.000000) translate(-143.186162, -96.795065) "
  ></path>
  <path
    d="M25.6296805,49.1786379 C25.7899026,56.6738079 31.8638118,59.4664629 30.5412235,61.8847029 C28.42096,65.7628179 23.5946466,60.5656629 22.5411106,58.3569579 C20.6617642,54.4135779 17.5282607,37.8019179 25.7151506,38.2072479 C28.5277976,39.0797379 25.4395026,40.2716829 25.6296805,49.1786379"
    id="path48"
    fill="#755946"
    fill-rule="nonzero"
    transform="translate(25.541380, 50.740619) scale(-1, 1) rotate(-180.000000) translate(-25.541380, -50.740619) "
  ></path>
  <path
    d="M265.105854,60.1774187 C264.483379,63.4853237 263.413285,66.1646237 261.282715,68.2702787 C260.26896,69.2698637 258.836442,70.6369937 257.49496,70.9117937 L257.47744,70.9873637 C257.429346,70.9736237 257.385031,70.9564487 257.338654,70.9392737 C256.611402,71.0423237 255.917473,70.8053087 255.338969,69.9912137 C254.230744,68.4317237 254.700692,66.8344487 255.707576,65.2818287 C255.933962,64.4986487 256.250009,63.7463837 256.607967,63.1109087 C258.381953,59.9541437 260.439007,57.7626137 261.190649,53.7677087 C261.972866,49.6113587 261.450358,45.9118637 260.979722,41.9410037 C260.843685,40.7902787 260.344193,38.3445587 261.458946,37.5957287 C262.593967,36.8365937 263.721087,38.7498887 264.154278,39.8216087 C266.477224,45.5649287 266.297558,53.8432787 265.105854,60.1774187"
    id="path50"
    fill="#755946"
    fill-rule="nonzero"
    transform="translate(260.332047, 54.204772) scale(-1, 1) rotate(-180.000000) translate(-260.332047, -54.204772) "
  ></path>
</svg>
