<?xml version="1.0" encoding="UTF-8"?>
<svg
  width="291px"
  height="160px"
  viewBox="0 0 291 160"
  version="1.1"
  xmlns="http://www.w3.org/2000/svg"
  xmlns:xlink="http://www.w3.org/1999/xlink"
>
  <title>mouth-qw</title>
  <g id="Page-1" stroke="none" stroke-width="1" fill="none" fill-rule="evenodd">
    <g id="Artboard" transform="translate(-1360.000000, -1655.000000)">
      <g id="mouth-qw" transform="translate(1360.000000, 1655.000000)">
        <path
          d="M137.6664,13.2373549 C134.165835,19.6642399 136.453741,27.6093949 133.863529,33.6481249 L133.863529,30.6047149 C132.8192,26.6991199 132.492847,22.8106999 131.2424,18.8638849 C129.930118,14.7178399 128.140329,10.8706399 131.362635,6.82420991 C134.732659,2.59572491 152.685506,-0.980110091 155.100518,4.89373991 C147.783341,5.31967991 141.562024,6.07537991 137.6664,13.2373549"
          id="path14"
          fill="#755946"
          fill-rule="nonzero"
          transform="translate(142.324315, 17.728197) scale(-1, 1) rotate(-180.000000) translate(-142.324315, -17.728197) "
        ></path>
        <path
          d="M111.005082,34.0748918 C111.005082,39.9830918 108.844282,70.0256018 123.433976,83.7518618 C130.819859,90.7077368 135.948753,84.1915418 146.464188,84.1881068 C156.533035,84.1846718 160.4424,90.5703368 166.021318,86.7952718 C187.333882,72.3751418 182.586306,34.0748918 182.586306,34.0748918 L111.005082,34.0748918"
          id="path16"
          fill="#EF615B"
          fill-rule="nonzero"
          transform="translate(146.964764, 61.031938) scale(-1, 1) rotate(-180.000000) translate(-146.964764, -61.031938) "
        ></path>
        <path
          d="M111.005082,143.34745 C111.005082,135.347335 102.9184,89.6515303 144.976706,88.0336453 C193.472753,86.1684403 182.586306,143.34745 182.586306,143.34745 L111.005082,143.34745"
          id="path18"
          fill="#EF615B"
          fill-rule="nonzero"
          transform="translate(147.006380, 115.668218) scale(-1, 1) rotate(-180.000000) translate(-147.006380, -115.668218) "
        ></path>
        <path
          d="M180.160988,89.040095 C180.160988,67.93202 165.495718,50.822285 147.402024,50.822285 C129.311765,50.822285 114.646494,67.93202 114.646494,89.040095 C114.646494,110.14817 129.311765,127.257905 147.402024,127.257905 C165.495718,127.257905 180.160988,110.14817 180.160988,89.040095"
          id="path20"
          fill="#755946"
          fill-rule="nonzero"
          transform="translate(147.403741, 89.040095) scale(-1, 1) rotate(-180.000000) translate(-147.403741, -89.040095) "
        ></path>
      </g>
    </g>
  </g>
</svg>
