<?xml version="1.0" encoding="UTF-8"?>
<svg
  width="291px"
  height="160px"
  viewBox="0 0 291 160"
  version="1.1"
  xmlns="http://www.w3.org/2000/svg"
  xmlns:xlink="http://www.w3.org/1999/xlink"
>
  <title>mouth-gk</title>
  <g id="Page-1" stroke="none" stroke-width="1" fill="none" fill-rule="evenodd">
    <g id="Artboard" transform="translate(-1360.000000, -1217.000000)">
      <g id="mouth-gk" transform="translate(1360.000000, 1217.000000)">
        <path
          d="M228.833271,104.698392 C217.819718,112.540497 214.738259,124.913367 202.3712,128.575077 C182.649176,134.418012 162.903106,134.792427 142.748235,134.792427 C135.159671,134.792427 127.818447,133.442472 120.398212,133.013097 C117.155294,132.824172 112.297788,134.603502 108.525835,134.603502 L109.360612,134.792427 C101.504094,135.465687 92.2322353,130.261662 84.6161882,128.197227 C78.0101176,126.407592 75.1416471,115.398417 68.6798588,113.200017 C59.1434824,109.950507 48.8822588,97.3165766 43.1831059,81.8865566 C40.5585412,74.7864116 53.7672471,74.8894616 59.5282353,66.0786866 C71.1532706,48.2956916 86.5021647,35.0091116 104.774494,30.5539166 C131.978588,23.9209316 159.533082,24.2713016 186.531059,30.8115416 C192.580612,32.2782866 199.221035,33.5423666 204.428941,37.8532916 C208.001647,40.8108266 210.471624,45.4171616 213.601176,49.0307816 C217.805976,53.8878716 230.337929,60.8677916 233.752612,66.6798116 C239.286871,76.0848416 242.416424,75.8546966 246.727718,85.9123766 C249.410682,92.1743816 235.356894,100.057707 228.833271,104.698392"
          id="path98"
          fill="#755946"
          fill-rule="nonzero"
          transform="translate(144.953096, 80.296113) scale(-1, 1) rotate(-180.000000) translate(-144.953096, -80.296113) "
        ></path>
        <path
          d="M223.910494,48.0145301 C223.910494,48.0145301 217.088,55.9322051 215.524941,56.3203601 C213.961882,56.7119501 144.891859,65.7013451 144.891859,65.7013451 C144.891859,65.7013451 75.8218353,56.7119501 74.2587765,56.3203601 C72.6957176,55.9322051 66.4434824,41.5223801 66.4434824,41.5223801 C66.4434824,41.5223801 55.1070118,32.8764851 57.8449412,30.5303801 C60.5794353,28.1842751 65.7323765,29.4243101 94.5785412,31.5093551 C129.752518,34.0478201 162.580188,34.8275651 194.628047,32.2891001 C223.460471,30.0048251 229.200847,28.1842751 231.938776,30.5303801 C234.673271,32.8764851 223.910494,48.0145301 223.910494,48.0145301"
          id="path100"
          fill="#FFFFFF"
          fill-rule="nonzero"
          transform="translate(144.901034, 47.480095) scale(-1, 1) rotate(-180.000000) translate(-144.901034, -47.480095) "
        ></path>
        <path
          d="M223.910494,39.6519483 C223.910494,39.6519483 217.088,49.0810233 215.524941,49.3489533 C213.961882,49.6168833 144.891859,55.7758383 144.891859,55.7758383 C144.891859,55.7758383 75.8218353,49.6168833 74.2587765,49.3489533 C72.6957176,49.0810233 67.3400941,41.4415833 67.3400941,41.4415833 C67.3400941,41.4415833 55.1070118,33.2834583 57.8449412,31.6793133 C60.5794353,30.0717333 64.2861176,30.8514783 92.8196706,35.2585833 C128.581082,40.7786283 165.524235,40.7786283 198.142353,35.2585833 C226.614071,30.4392783 229.200847,30.0717333 231.938776,31.6793133 C234.673271,33.2834583 223.910494,39.6519483 223.910494,39.6519483"
          id="path102"
          fill="#DBDBDB"
          fill-rule="nonzero"
          transform="translate(144.914605, 43.298804) scale(-1, 1) rotate(-180.000000) translate(-144.914605, -43.298804) "
        ></path>
        <path
          d="M247.026588,19.3518595 C237.895576,32.8101895 212.852282,56.1613195 197.070541,60.9256645 C177.547765,66.8235595 109.779718,64.4431045 91.4970824,58.6894795 C75.6947294,53.7190345 51.0018353,31.7075545 42.1662588,18.1770895 C42.1662588,18.1770895 38.9164706,23.6215645 39.3390118,24.2948245 C49.7891765,40.8343495 69.0405647,61.8531145 85.6811294,71.2169245 C108.594541,84.1084795 181.532706,83.5966645 203.333082,71.6634745 C220.207247,62.4267595 245.741788,34.1601445 250.104612,24.9440395 C250.228282,24.6829795 247.026588,19.3518595 247.026588,19.3518595"
          id="path104"
          fill="#EF615B"
          fill-rule="nonzero"
          transform="translate(144.704607, 49.463292) scale(-1, 1) rotate(-180.000000) translate(-144.704607, -49.463292) "
        ></path>
        <path
          d="M93.7815529,94.4292747 C105.963106,85.5223197 116.712141,82.2178497 145.922447,82.2178497 C167.046071,82.2178497 185.218776,87.6829347 197.4072,96.5143197 C195.775435,105.30792 171.755859,113.0985 158.712047,109.687545 C144.434965,105.957135 127.392471,110.601255 118.481318,108.567735 C108.704471,106.33842 97.0450824,102.40878 93.7815529,94.4292747"
          id="path106"
          fill="#ED7D77"
          fill-rule="nonzero"
          transform="translate(145.594376, 96.362375) scale(-1, 1) rotate(-180.000000) translate(-145.594376, -96.362375) "
        ></path>
        <path
          d="M217.201365,126.604455 C217.201365,126.604455 218.238824,127.89258 199.482118,127.50099 C183.5664,127.17123 105.739812,127.22619 92.4005647,127.50099 C73.6404235,127.89258 69.5764706,127.50099 69.5764706,127.50099 L66.4434824,112.73736 L144.682306,91.807905 L144.682306,91.794165 L144.761318,91.801035 L148.972988,91.50219 L148.952376,92.144535 L224.807106,112.73736 L217.201365,126.604455"
          id="path108"
          fill="#FFFFFF"
          fill-rule="nonzero"
          transform="translate(145.625294, 109.588610) scale(-1, 1) rotate(-180.000000) translate(-145.625294, -109.588610) "
        ></path>
        <path
          d="M247.589976,142.476445 C238.510494,128.983765 211.120894,105.433405 195.356329,100.603795 C175.8576,94.633765 110.896188,94.908565 92.5895059,100.59349 C76.7699765,105.50554 50.8644235,128.58187 41.9773176,142.08142 C41.9773176,142.08142 38.1435294,137.12815 38.5695059,136.458325 C49.0849412,119.956585 66.2923294,93.88837 82.9672471,84.589825 C105.928753,71.784145 144.070824,70.362055 144.070824,70.362055 L144.070824,70.581895 C147.884,70.74334 183.150729,72.546715 204.906447,84.562345 C221.742824,93.864325 246.215859,129.21391 250.544329,138.44719 C250.668,138.70825 247.589976,142.476445 247.589976,142.476445"
          id="path110"
          fill="#EF615B"
          fill-rule="nonzero"
          transform="translate(144.542212, 106.419250) scale(-1, 1) rotate(-180.000000) translate(-144.542212, -106.419250) "
        ></path>
      </g>
    </g>
  </g>
</svg>
