<?xml version="1.0" encoding="UTF-8"?>
<svg
  width="291px"
  height="160px"
  viewBox="0 0 291 160"
  version="1.1"
  xmlns="http://www.w3.org/2000/svg"
  xmlns:xlink="http://www.w3.org/1999/xlink"
>
  <title>mouth-chjsh</title>
  <g id="Page-1" stroke="none" stroke-width="1" fill="none" fill-rule="evenodd">
    <g id="Artboard" transform="translate(-776.000000, -1655.000000)">
      <g id="mouth-chjsh" transform="translate(776.000000, 1655.000000)">
        <path
          d="M42.1119059,96.8536067 C32.6648471,91.4125667 32.9224941,63.0222917 44.3276706,61.1433467 C54.1113882,59.5288967 43.2489882,72.7089917 42.1119059,76.0512467 C40.4492235,80.9358167 41.3252235,88.6096067 44.9048,92.5667267 C47.0724706,94.4937617 49.7691765,94.6552067 49.8825412,95.6685317 C50.3016471,99.3783317 43.6096941,97.7157917 42.1119059,96.8536067"
          id="path114"
          fill="#755946"
          fill-rule="nonzero"
          transform="translate(42.637026, 79.493523) scale(-1, 1) rotate(-180.000000) translate(-42.637026, -79.493523) "
        ></path>
        <path
          d="M226.728047,107.279444 C216.229788,114.159749 213.296047,125.017784 201.509553,128.232944 C182.715059,133.357964 163.896518,133.687724 144.689788,133.687724 C137.458494,133.687724 130.4608,132.502649 123.390965,132.124799 C120.2992,131.963354 115.668424,133.522844 112.075106,133.522844 L112.872094,133.687724 C105.383153,134.278544 96.5475765,129.709994 89.2888,127.899749 C82.9953412,126.329954 80.2608471,116.670734 74.1048,114.740264 C65.0150118,111.889214 54.9118118,105.774914 49.4771765,92.2375794 C46.9797176,86.0064894 59.8929882,81.1219194 65.3791529,73.3897344 C76.4579765,57.7845294 91.0854588,46.1227044 108.5024,42.2136744 C134.425129,36.3947844 160.684518,36.7039344 186.414871,42.4403844 C192.179294,43.7285094 198.507106,44.8380144 203.471106,48.6199494 C206.875482,51.2168094 209.228659,55.2598044 212.210494,58.4268744 C216.219482,62.6897094 228.160565,68.8177494 231.417224,73.9152894 C236.686965,82.1695944 239.672235,81.9669294 243.780847,90.7948794 C246.336706,96.2908794 232.945929,103.205534 226.728047,107.279444"
          id="path118"
          fill="#755946"
          fill-rule="nonzero"
          transform="translate(146.630690, 85.865755) scale(-1, 1) rotate(-180.000000) translate(-146.630690, -85.865755) "
        ></path>
        <path
          d="M229.685835,65.1146318 C229.685835,65.1146318 215.532424,70.1812568 214.041506,70.5556718 C212.554024,70.9266518 146.730353,79.4935418 146.730353,79.4935418 C146.730353,79.4935418 80.9066824,70.9266518 79.4192,70.5556718 C77.9282824,70.1812568 63.7748706,65.1146318 63.7748706,65.1146318 C63.7748706,65.1146318 61.1674824,48.2109968 63.7748706,45.9782468 C66.3822588,43.7420618 71.2947294,44.9237018 98.7839529,46.9091318 C132.305553,49.3308068 163.587341,50.0727668 194.130541,47.6510918 C221.606024,45.4767368 227.078447,43.7420618 229.685835,45.9782468 C232.293224,48.2109968 229.685835,65.1146318 229.685835,65.1146318"
          id="path120"
          fill="#FFFFFF"
          fill-rule="nonzero"
          transform="translate(146.730353, 62.129811) scale(-1, 1) rotate(-180.000000) translate(-146.730353, -62.129811) "
        ></path>
        <path
          d="M230.458776,54.9580066 C230.458776,54.9580066 215.532424,63.9645766 214.041506,64.2187666 C212.554024,64.4763916 146.730353,70.3433716 146.730353,70.3433716 C146.730353,70.3433716 80.9066824,64.4763916 79.4192,64.2187666 C77.9282824,63.9645766 63.2080471,53.7832366 63.2080471,53.7832366 C63.2080471,53.7832366 62.5519059,46.9819366 62.6893176,46.8994966 C65.2829647,45.3468766 69.9137412,46.5937816 97.1075294,50.7913516 C131.185647,56.0537716 166.393976,56.0537716 197.479953,50.7913516 C224.611906,46.2021916 228.174306,45.4739716 230.781694,47.0059816 L230.458776,54.9580066"
          id="path122"
          fill="#DBDBDB"
          fill-rule="nonzero"
          transform="translate(146.726046, 58.300121) scale(-1, 1) rotate(-180.000000) translate(-146.726046, -58.300121) "
        ></path>
        <path
          d="M244.065976,32.2501946 C235.360941,45.0730496 220.482682,54.6086096 205.442965,59.1531146 C186.840847,64.7727746 105.623624,64.9926146 88.1998118,59.5103546 C73.1429176,54.7700546 57.2546824,44.0253746 48.8347765,31.1303846 C48.8347765,31.1303846 45.7395765,36.3172346 46.1415059,36.9595796 C56.1004235,52.7227946 72.1982118,63.8109746 88.0555294,72.7316696 C109.893694,85.0186646 184.666306,85.2419396 205.442965,73.8686546 C221.523576,65.0681846 242.843012,46.3611746 246.999718,37.5778796 C247.116518,37.3271246 244.065976,32.2501946 244.065976,32.2501946"
          id="path124"
          fill="#EF615B"
          fill-rule="nonzero"
          transform="translate(146.554242, 56.655242) scale(-1, 1) rotate(-180.000000) translate(-146.554242, -56.655242) "
        ></path>
        <path
          d="M230.108376,116.637341 C230.108376,116.637341 224.206541,116.788481 204.357412,116.414066 C187.5176,116.098046 105.166729,116.149571 91.0511059,116.414066 C71.2019765,116.788481 63.5859294,116.578946 63.5859294,116.578946 L63.5859294,102.344306 L96.5819294,82.1087213 L146.373082,82.3972613 L146.373082,82.3869563 L110.793741,82.1087213 L150.914541,82.1087213 L150.893929,82.7167163 L212.210494,87.2303063 L231.156141,102.344306 L230.108376,116.637341"
          id="path126"
          fill="#FFFFFF"
          fill-rule="nonzero"
          transform="translate(147.371035, 99.388111) scale(-1, 1) rotate(-180.000000) translate(-147.371035, -99.388111) "
        ></path>
        <path
          d="M244.601882,133.893058 C235.948376,121.032418 227.985365,108.456883 212.962824,103.857418 C194.381318,98.1656235 104.404094,97.6709835 86.9631059,103.087978 C71.8856,107.769883 57.1241412,120.651133 48.6561412,133.511773 C48.6561412,133.511773 45.0009882,128.795518 45.4097882,128.156608 C55.4271059,112.431178 69.3640941,91.3024935 85.2557647,82.4436285 C107.138588,70.2390735 147.372753,72.4340385 147.372753,72.4340385 C147.372753,72.4340385 190.025365,72.0767985 210.757365,83.5290885 C226.803624,92.3913885 243.293035,121.252258 247.415388,130.049293 C247.535624,130.300048 244.601882,133.893058 244.601882,133.893058"
          id="path128"
          fill="#EF615B"
          fill-rule="nonzero"
          transform="translate(146.398436, 103.086744) scale(-1, 1) rotate(-180.000000) translate(-146.398436, -103.086744) "
        ></path>
        <path
          d="M245.474447,95.7477979 C245.629035,94.7413429 247.965035,93.6284029 251.630494,90.8804029 C255.374965,87.0778579 255.519247,81.4238479 254.066118,76.4740129 C253.069882,73.0871029 242.770871,59.4604579 252.479012,61.4836729 C263.794871,63.8435179 264.454447,90.3067579 252.891247,96.7199029 C251.379718,97.5580429 244.900753,99.4369879 245.474447,95.7477979"
          id="path116"
          fill="#755946"
          fill-rule="nonzero"
          transform="translate(253.354037, 79.613879) scale(-1, 1) rotate(-180.000000) translate(-253.354037, -79.613879) "
        ></path>
        <path
          d="M129.083247,28.3279176 C128.330918,25.6726626 124.895624,22.0659126 125.737271,19.2698226 C126.767859,15.8485626 131.666588,15.0585126 134.3736,14.9142426 C139.767012,14.6291376 150.540094,13.4681076 154.597176,17.1813426 C146.129176,17.3840076 128.801553,16.5286926 129.083247,28.3279176"
          id="path112"
          fill="#755946"
          fill-rule="nonzero"
          transform="translate(140.101322, 21.422694) scale(-1, 1) rotate(-180.000000) translate(-140.101322, -21.422694) "
        ></path>
      </g>
    </g>
  </g>
</svg>
