<?xml version="1.0" encoding="UTF-8"?>
<svg
  width="291px"
  height="160px"
  viewBox="0 0 291 160"
  version="1.1"
  xmlns="http://www.w3.org/2000/svg"
  xmlns:xlink="http://www.w3.org/1999/xlink"
>
  <title>mouth-ee</title>
  <g id="Page-1" stroke="none" stroke-width="1" fill="none" fill-rule="evenodd">
    <g id="Artboard" transform="translate(-1360.000000, -1448.000000)">
      <g id="mouth-ee" transform="translate(1360.000000, 1448.000000)">
        <path
          d="M252.840235,48.3072836 C251.304659,54.4078436 248.072047,62.1091136 241.933176,61.7346986 C235.502306,61.3396736 242.214871,53.7826736 243.973741,51.6667136 C246.368141,48.7847486 248.206024,45.8443886 248.570165,41.6639936 C249.061412,35.9790686 248.511765,36.1542536 247.735388,33.9867686 C246.959012,31.8089786 247.494918,28.6899986 250.078259,29.6071436 C252.709694,30.5414636 253.142541,34.7665136 253.472329,37.4767286 C253.925788,41.1933986 253.740282,44.7245786 252.840235,48.3072836"
          id="path168"
          fill="#755946"
          fill-rule="nonzero"
          transform="translate(246.456478, 45.595242) scale(-1, 1) rotate(-180.000000) translate(-246.456478, -45.595242) "
        ></path>
        <path
          d="M33.3386824,47.7362739 C34.304,54.1459839 36.8564235,62.3693739 43.1945412,62.5926489 C49.8315294,62.8262289 43.6926588,54.4070439 42.1021176,52.0643739 C39.9310118,48.8663889 38.3336,45.6718389 38.3782588,41.3437389 C38.4366588,35.4630189 38.9828706,35.7000339 39.9928471,33.5497239 C41.0062588,31.3925439 40.7657882,28.1395989 38.0244235,28.8265989 C35.2315294,29.5239039 34.3692706,33.8142189 33.7612235,36.5622189 C32.9264471,40.3304139 32.7684235,43.9715139 33.3386824,47.7362739"
          id="path170"
          fill="#755946"
          fill-rule="nonzero"
          transform="translate(39.607696, 45.665259) scale(-1, 1) rotate(-180.000000) translate(-39.607696, -45.665259) "
        ></path>
        <path
          d="M229.689788,123.776008 C221.743953,127.180093 215.316518,124.219123 207.466871,123.301978 C196.590729,122.031028 185.319529,120.962743 174.343765,120.962743 C155.325976,120.962743 136.266965,120.574588 117.345365,120.574588 C107.736847,120.574588 98.9871529,121.409293 89.6740706,123.301978 C81.5908235,124.943908 73.5556706,126.747283 65.2216471,125.943493 C62.4390588,125.672128 50.9720471,124.243168 50.4120941,122.910388 L50.0204706,122.910388 C44.7541647,119.307073 46.5851765,112.698133 49.3402824,108.091798 C52.9851294,101.998108 55.9738353,95.5780929 59.6564706,89.3985279 C72.8239529,67.2943029 95.4384941,47.7491529 121.32,43.8813429 C135.665788,41.7379029 151.155529,42.8714529 165.312376,45.6572379 C174.068941,47.3816079 185.934447,48.2575329 193.351247,53.6470479 C196.391482,55.8557529 199.016047,58.4216979 201.726494,60.9807729 C205.934729,64.9550679 211.060188,67.7992479 214.196612,72.9654879 C217.917035,79.0866579 221.678682,85.0189029 225.673929,91.0438929 C231.393694,99.6657429 244.385976,117.483088 229.689788,123.776008"
          id="path172"
          fill="#755946"
          fill-rule="nonzero"
          transform="translate(141.554587, 84.452849) scale(-1, 1) rotate(-180.000000) translate(-141.554587, -84.452849) "
        ></path>
        <path
          d="M228.408438,67.908259 C228.408438,67.908259 212.575153,72.627949 211.036141,72.985189 C209.493694,73.342429 141.553882,70.292149 141.553882,70.292149 C141.553882,70.292149 73.3736,73.342429 71.8345882,72.985189 C70.2921412,72.627949 55.6577882,67.750249 55.6577882,67.750249 C55.6577882,67.750249 54.6512471,55.738054 57.3479529,53.587744 C58.6705412,52.536634 99.7051294,46.480729 140.894306,46.054789 C183.763341,45.608239 224.375388,51.712234 225.749506,52.807999 C228.446212,54.958309 228.408438,67.908259 228.408438,67.908259"
          id="path174"
          fill="#FFFFFF"
          fill-rule="nonzero"
          transform="translate(141.941169, 59.522882) scale(-1, 1) rotate(-180.000000) translate(-141.941169, -59.522882) "
        ></path>
        <path
          d="M229.689788,65.3643843 C229.689788,65.3643843 212.575153,65.4605643 211.036141,65.7078843 C209.493694,65.9517693 141.553882,60.3664593 141.553882,60.3664593 C141.553882,60.3664593 73.3736,65.9517693 71.8345882,65.7078843 C70.2921412,65.4605643 55.4757176,64.4609793 55.4757176,64.4609793 C55.4757176,64.4609793 53.9092235,54.2590293 56.6059294,52.7854143 C59.3026353,51.3117993 109.8152,44.7784293 142.416141,44.7784293 C173.838776,44.7784293 225.409412,51.3117993 228.106118,52.7854143 C230.799388,54.2590293 229.689788,65.3643843 229.689788,65.3643843"
          id="path176"
          fill="#DBDBDB"
          fill-rule="nonzero"
          transform="translate(142.469758, 55.247037) scale(-1, 1) rotate(-180.000000) translate(-142.469758, -55.247037) "
        ></path>
        <path
          d="M103.511435,97.1464749 C114.126494,89.3868099 123.487671,86.5082799 148.936329,86.5082799 C167.335765,86.5082799 183.169035,91.2657549 193.787529,98.9635899 C192.365318,106.62364 171.440941,113.407765 160.076988,110.43649 C147.637788,107.18698 132.793882,111.23341 125.026682,109.46095 C116.514024,107.520175 106.355859,104.09548 103.511435,97.1464749"
          id="path178"
          fill="#ED7D77"
          fill-rule="nonzero"
          transform="translate(148.649482, 98.829335) scale(-1, 1) rotate(-180.000000) translate(-148.649482, -98.829335) "
        ></path>
        <path
          d="M224.639906,124.144995 C224.639906,124.144995 209.607059,116.574255 195.1376,114.64035 C180.668141,112.706445 143.773082,111.985095 143.773082,111.985095 C143.773082,111.985095 107.091012,112.362945 94.9472471,113.85717 C80.3987765,115.65024 65.2079059,123.06984 65.2079059,123.06984 L96.8675765,91.278915 L143.350541,87.974445 L143.350541,87.96414 L143.426118,87.97101 L147.287388,87.69621 L147.270212,88.283595 L193.533318,92.04492 L224.639906,124.144995"
          id="path180"
          fill="#FFFFFF"
          fill-rule="nonzero"
          transform="translate(144.923906, 105.920602) scale(-1, 1) rotate(-180.000000) translate(-144.923906, -105.920602) "
        ></path>
        <path
          d="M239.432282,132.038631 C238.796753,141.350916 235.265271,132.059241 235.265271,132.059241 C235.928282,121.970646 207.085553,80.7369055 189.929694,74.2207105 C172.773835,67.7079505 113.281412,68.0239705 97.1767529,74.2207105 C80.0483765,80.8159105 48.8696471,122.183616 49.5670118,132.268776 C49.5670118,132.268776 46.0733176,141.577626 45.4034353,132.268776 C44.7301176,122.959926 68.4473882,75.2546455 88.6469176,61.2913705 C108.846447,47.3280955 142.385224,47.7231205 142.385224,47.7231205 C142.385224,47.7231205 178.974541,47.0876455 198.112565,60.1921705 C218.367059,74.0627005 240.067812,122.726346 239.432282,132.038631"
          id="path182"
          fill="#EF615B"
          fill-rule="nonzero"
          transform="translate(142.417667, 92.062098) scale(-1, 1) rotate(-180.000000) translate(-142.417667, -92.062098) "
        ></path>
        <path
          d="M223.980329,57.6547089 C192.543953,55.9475139 185.697412,53.3678289 142.416141,52.8354039 C100.254776,52.3167189 91.8005176,58.0943889 63.5349176,57.3386889 C41.5181176,56.7513039 42.8338353,47.0920839 47.4268235,41.4208989 C50.6319529,37.4603439 47.6982118,49.2355239 56.1215529,49.7919939 C63.7410353,50.2935039 110.649976,41.4208989 141.577929,41.6716539 C174.567059,41.9430189 221.194306,49.4965839 228.806918,48.9023289 C237.219953,48.2462439 234.183153,36.6874689 237.443247,40.6068039 C242.111812,46.2230289 242.2664,58.6439889 223.980329,57.6547089"
          id="path184"
          fill="#EF615B"
          fill-rule="nonzero"
          transform="translate(142.379499, 48.754119) scale(-1, 1) rotate(-180.000000) translate(-142.379499, -48.754119) "
        ></path>
      </g>
    </g>
  </g>
</svg>
