<?xml version="1.0" encoding="UTF-8"?>
<svg
  width="291px"
  height="160px"
  viewBox="0 0 291 160"
  version="1.1"
  xmlns="http://www.w3.org/2000/svg"
  xmlns:xlink="http://www.w3.org/1999/xlink"
>
  <title>mouth-neutral</title>
  <defs>
    <linearGradient x1="50%" y1="0%" x2="50%" y2="100%" id="linearGradient-1">
      <stop stop-color="#EF615B" offset="0%"></stop>
      <stop stop-color="#E44942" offset="37.9015516%"></stop>
      <stop stop-color="#094079" offset="100%"></stop>
    </linearGradient>
  </defs>
  <path
    d="M26,94.6730549 C26,93.2308377 40.022919,92.6323752 73.9502366,77.6053196 C99.0034719,69.0720941 114.827991,63.8695815 121.423794,61.9977812 C131.317498,59.190081 144.32297,73.2748153 150.634673,73.2748153 C156.946377,73.2748153 169.476913,56.5942827 179.934897,59.2960319 C186.906886,61.0971982 201.663585,67.200294 224.204992,77.6053196 C249.578346,87.0897062 256.741126,83.6058962 255.147461,85.5 C252.756961,88.3411555 242.077144,83.8581078 218.05787,80.8099334 C194.038595,77.761759 175.865814,80.8099334 150.634673,80.8099334 C125.403533,80.8099334 116.862488,80.0970433 80.1114655,86.2904081 C43.3604435,92.483773 26,96.8363807 26,94.6730549 Z"
    id="Path-2"
    fill="url(#linearGradient-1)"
    fill-rule="nonzero"
  ></path>
  <path
    d="M28.471831,94.1688545 C28.471831,92.4369415 102.575367,78.4886372 137.859625,78.4886372 C161.382463,78.4886372 195.734882,76.5016602 218.011083,80.0985235 C248.247915,85.3568322 259.329738,83.1874912 257.733398,85.5 C256.137059,87.8125086 233.079109,94.7585905 200.287702,92.446082 C178.575682,98.6614115 166.555986,101 149.707005,101 C132.858025,101 111.433982,100.384184 75.7671497,94.1688545 C43.0899986,102.144985 28.471831,95.9296555 28.471831,94.1688545 Z"
    id="Path-2"
    fill="#FFB4B4"
    fill-rule="nonzero"
  ></path>
  <path
    d="M29,94 C72.6333037,83.2533333 113.143109,77.6044444 150.529415,77.0533333 C187.915721,76.5022222 223.700106,79.3177778 257.882569,85.5"
    id="Line-9"
    stroke="#000000"
    stroke-linecap="square"
  ></path>
</svg>
