<?xml version="1.0" encoding="UTF-8"?>
<svg
  width="47px"
  height="18px"
  viewBox="0 0 47 18"
  version="1.1"
  xmlns="http://www.w3.org/2000/svg"
  xmlns:xlink="http://www.w3.org/1999/xlink"
>
  <title>GDI</title>
  <g id="Page-1" stroke="none" stroke-width="1" fill="none" fill-rule="evenodd">
    <g
      id="Artboard"
      transform="translate(-252.000000, -31.000000)"
      fill="#000000"
      fill-rule="nonzero"
    >
      <path
        d="M258.815279,48.3589867 C260.246401,48.3589867 261.529744,47.9700949 262.665308,47.1923113 C263.800872,46.4145277 264.609767,45.3800755 265.091993,44.0889548 C265.387551,43.3111712 265.535329,42.4244979 265.535329,41.4289349 L265.535329,41.4289349 L265.535329,39.8889233 L258.41861,39.8889233 L258.41861,47.4723134 C257.314157,47.3945351 256.318594,47.0367546 255.43192,46.3989721 C254.545247,45.7611895 253.884131,44.9367389 253.448572,43.9256202 C253.137459,43.2100593 252.981902,42.3000525 252.981902,41.1955998 L252.981902,41.1955998 L252.981902,38.1155767 C252.981902,37.057791 253.246349,36.0816726 253.775241,35.1872215 C254.304134,34.2927703 255.015806,33.5849872 255.910257,33.0638722 C256.804709,32.5427572 257.773049,32.2821997 258.815279,32.2821997 C260.604181,32.2821997 262.019748,32.8266482 263.061978,33.9155453 C263.481981,34.3666598 263.828094,34.8722191 264.100319,35.4322233 C264.372543,35.9922275 264.516433,36.5600095 264.531989,37.1355694 L264.531989,37.1355694 L265.371995,37.1355694 C265.371995,36.4666755 265.220327,35.8055594 264.916991,35.1522212 C264.613656,34.498883 264.220875,33.9077674 263.738649,33.3788746 C263.147534,32.741092 262.431973,32.2549773 261.591967,31.9205303 C260.75196,31.5860834 259.826398,31.4188599 258.815279,31.4188599 C257.601937,31.4188599 256.481928,31.7183066 255.455254,32.3172 C254.42858,32.9160933 253.615796,33.7288772 253.016902,34.7555516 C252.418009,35.7822259 252.118562,36.9022343 252.118562,38.1155767 L252.118562,38.1155767 L252.118562,41.1955998 C252.118562,42.3933865 252.30523,43.4278387 252.678567,44.2989563 C253.191904,45.5278544 254.004688,46.5117507 255.116918,47.2506451 C256.229149,47.9895395 257.461936,48.3589867 258.815279,48.3589867 Z M259.258616,47.4723134 L259.258616,40.7289296 L264.67199,40.7289296 L264.67199,41.4289349 C264.67199,42.3467195 264.531989,43.1711701 264.251987,43.9022867 C263.831983,44.9445167 263.174756,45.7806341 262.280305,46.4106388 C261.385854,47.0406435 260.378624,47.3945351 259.258616,47.4723134 L259.258616,47.4723134 Z M276.408744,48.0089841 C277.590975,48.0089841 278.683761,47.7134263 279.687102,47.1223108 C280.690443,46.5311953 281.487671,45.7339671 282.078787,44.7306262 C282.669902,43.7272854 282.96546,42.6344994 282.96546,41.4522684 L282.96546,41.4522684 L282.96546,38.3255783 C282.96546,37.1433472 282.669902,36.0505613 282.078787,35.0472204 C281.487671,34.0438796 280.690443,33.2466514 279.687102,32.6555358 C278.683761,32.0644203 277.590975,31.7688625 276.408744,31.7688625 L276.408744,31.7688625 L270.365366,31.7688625 L270.365366,48.0089841 L276.408744,48.0089841 Z M298.715578,48.0089841 L298.715578,43.9022867 L293.885542,43.9022867 L293.885542,35.8755599 L298.715578,35.8755599 L298.715578,31.7688625 L288.215499,31.7688625 L288.215499,35.8755599 L293.045535,35.8755599 L293.045535,43.9022867 L288.215499,43.9022867 L288.215499,48.0089841 L298.715578,48.0089841 Z"
        id="GDI"
      ></path>
    </g>
  </g>
</svg>
