<?xml version="1.0" encoding="UTF-8"?>
<svg
  width="291px"
  height="160px"
  viewBox="0 0 291 160"
  version="1.1"
  xmlns="http://www.w3.org/2000/svg"
  xmlns:xlink="http://www.w3.org/1999/xlink"
>
  <title>mouth-u</title>
  <g id="Page-1" stroke="none" stroke-width="1" fill="none" fill-rule="evenodd">
    <g id="Artboard" transform="translate(-1068.000000, -1655.000000)">
      <g id="mouth-u" transform="translate(1068.000000, 1655.000000)">
        <path
          d="M167.473129,126.404034 C158.479529,127.832994 113.851624,129.557364 104.301506,122.800719 C38.6015059,76.3286043 27.2650353,71.6913543 47.4439529,58.2158493 C59.2373176,50.3428293 71.9307294,45.3277293 85.5173176,41.0030643 C101.470824,35.9261343 173.000518,27.6065643 194.007341,35.9330043 C206.879388,41.0339793 251.026353,61.9531293 252.125647,68.3216193 C253.747106,77.7026043 193.158824,122.319819 167.473129,126.404034"
          id="path130"
          fill="#755946"
          fill-rule="nonzero"
          transform="translate(145.277212, 80.054857) scale(-1, 1) rotate(-180.000000) translate(-145.277212, -80.054857) "
        ></path>
        <path
          d="M191.733176,135.719525 C175.209412,137.354585 116.644518,136.571405 105.565694,135.15962 C100.000518,134.448575 83.3427765,131.783015 79.6635765,127.894595 L139.994212,106.734995 L220.222071,127.262555 C212.977035,132.13682 200.984424,134.805815 191.733176,135.719525"
          id="path132"
          fill="#FFFFFF"
          fill-rule="nonzero"
          transform="translate(149.942824, 121.685225) scale(-1, 1) rotate(-180.000000) translate(-149.942824, -121.685225) "
        ></path>
        <path
          d="M256.440376,139.419372 C255.712094,145.887477 251.658447,139.433112 251.658447,139.433112 C252.417647,132.422277 209.266918,116.229687 189.586118,111.702357 C169.901882,107.178462 126.565647,105.502182 108.090635,109.809672 C88.4373176,114.388527 37.8010824,132.573417 38.6049412,139.577382 C38.6049412,139.577382 34.6680941,142.991772 33.8230118,139.577382 C32.2565176,133.256982 74.1739765,105.612102 97.3519059,95.9116623 C120.529835,86.2112223 171.265694,82.0136523 200.324847,96.5437023 C222.822588,107.793327 257.168659,132.947832 256.440376,139.419372"
          id="path134"
          fill="#EF615B"
          fill-rule="nonzero"
          transform="translate(145.116044, 114.695176) scale(-1, 1) rotate(-180.000000) translate(-145.116044, -114.695176) "
        ></path>
        <path
          d="M235.069412,44.879484 C235.069412,44.879484 222.829459,59.392359 221.170212,59.807994 C219.517835,60.220194 147.891953,84.045354 147.891953,84.045354 C147.891953,84.045354 73.2189647,60.220194 71.5631529,59.807994 C69.9073412,59.392359 61.9752471,47.407644 61.9752471,47.407644 C61.9752471,47.407644 51.2811765,34.976379 54.1805647,32.492874 C57.0765176,30.009369 62.5352,31.321539 93.0852706,33.526809 C130.334165,36.219849 165.102776,37.044249 199.040047,34.354644 C229.576376,31.936404 235.656847,30.009369 238.556235,32.492874 C241.452188,34.976379 235.069412,44.879484 235.069412,44.879484"
          id="path136"
          fill="#FFFFFF"
          fill-rule="nonzero"
          transform="translate(146.496000, 57.595979) scale(-1, 1) rotate(-180.000000) translate(-146.496000, -57.595979) "
        ></path>
        <path
          d="M230.057318,37.4285069 C230.057318,37.4285069 222.829459,47.4140519 221.170212,47.6957219 C219.517835,47.9808269 147.259859,72.9876269 147.259859,72.9876269 C147.259859,72.9876269 73.2189647,47.9808269 71.5631529,47.6957219 C69.9073412,47.4140519 64.2356706,39.3211919 64.2356706,39.3211919 C64.2356706,39.3211919 51.2811765,30.6856019 54.1805647,28.9818419 C57.0765176,27.2815169 62.0748706,33.5813069 92.2985882,38.2460369 C130.169271,44.0958419 171.461506,42.8317619 206.010259,36.9819569 C236.161835,31.8809819 235.656847,27.2815169 238.556235,28.9818419 C241.452188,30.6856019 230.057318,37.4285069 230.057318,37.4285069"
          id="path138"
          fill="#DBDBDB"
          fill-rule="nonzero"
          transform="translate(146.392564, 50.804753) scale(-1, 1) rotate(-180.000000) translate(-146.392564, -50.804753) "
        ></path>
        <path
          d="M253.475718,18.9077148 C243.801929,33.1595298 193.636329,64.9744998 176.923624,70.0239498 C156.246588,76.2687798 131.763247,74.3176998 112.401929,68.2240098 C95.6651765,62.9581548 46.7637647,32.7576348 37.4094588,18.4268148 C37.4094588,18.4268148 33.0741176,23.4316098 33.5207059,24.1426548 C44.5892235,41.6577198 86.6784471,76.0558098 104.301506,85.9692198 C128.568424,99.6233448 165.861976,97.9779798 188.954024,85.3371798 C206.820988,75.5577348 251.424847,35.4884598 256.045318,25.7261898 C256.175859,25.4479548 253.475718,18.9077148 253.475718,18.9077148"
          id="path140"
          fill="#EF615B"
          fill-rule="nonzero"
          transform="translate(144.769166, 56.979530) scale(-1, 1) rotate(-180.000000) translate(-144.769166, -56.979530) "
        ></path>
      </g>
    </g>
  </g>
</svg>
