<?xml version="1.0" encoding="UTF-8"?>
<svg
  width="291px"
  height="160px"
  viewBox="0 0 291 160"
  version="1.1"
  xmlns="http://www.w3.org/2000/svg"
  xmlns:xlink="http://www.w3.org/1999/xlink"
>
  <title>mouth-o</title>
  <g id="Page-1" stroke="none" stroke-width="1" fill="none" fill-rule="evenodd">
    <g id="Artboard" transform="translate(-757.000000, -1194.000000)">
      <g id="mouth-o" transform="translate(757.000000, 1194.000000)">
        <path
          d="M96.7725176,6.37539032 C96.7725176,17.0204553 86.0131765,77.8062153 141.960376,79.9599603 C206.471765,82.4400303 191.995435,6.37539032 191.995435,6.37539032 L96.7725176,6.37539032"
          id="path22"
          fill="#EF615B"
          fill-rule="nonzero"
          transform="translate(144.663434, 43.197353) scale(-1, 1) rotate(-180.000000) translate(-144.663434, -43.197353) "
        ></path>
        <path
          d="M96.7725176,153.659807 C96.7725176,143.018177 86.0131765,82.2324173 141.960376,80.0786723 C206.471765,77.5986023 191.995435,153.659807 191.995435,153.659807 L96.7725176,153.659807"
          id="path24"
          fill="#EF615B"
          fill-rule="nonzero"
          transform="translate(144.663434, 116.839561) scale(-1, 1) rotate(-180.000000) translate(-144.663434, -116.839561) "
        ></path>
        <path
          d="M188.766259,80.01588 C188.766259,48.046335 169.257224,22.132695 145.189553,22.132695 C121.121882,22.132695 101.612847,48.046335 101.612847,80.01588 C101.612847,111.985425 121.121882,137.9025 145.189553,137.9025 C169.257224,137.9025 188.766259,111.985425 188.766259,80.01588"
          id="path26"
          fill="#755946"
          fill-rule="nonzero"
          transform="translate(145.189553, 80.017598) scale(-1, 1) rotate(-180.000000) translate(-145.189553, -80.017598) "
        ></path>
        <path
          d="M116.230024,134.05615 C122.056282,125.71597 126.900047,119.419615 146.027765,119.419615 C159.858259,119.419615 168.590776,127.24111 174.688424,134.68132 C169.937412,135.84922 164.915012,139.163995 155.948894,137.370925 C146.464047,135.474805 132.228188,137.74534 126.271388,137.102995 C119.287435,136.35073 116.820894,135.096955 116.230024,134.05615"
          id="path28"
          fill="#ED7D77"
          fill-rule="nonzero"
          transform="translate(145.459224, 128.655905) scale(-1, 1) rotate(-180.000000) translate(-145.459224, -128.655905) "
        ></path>
        <path
          d="M144.207059,32.9404445 C135.330259,32.9404445 127.071812,28.1177045 120.184047,22.0583645 C139.270541,22.4121695 151.644471,21.3335795 167.807529,21.8900495 C168.329694,21.9106595 169.906494,21.7457795 170.318729,21.9621845 C163.252329,28.5195995 153.482353,32.9404445 144.207059,32.9404445"
          id="path30"
          fill="#FFFFFF"
          fill-rule="nonzero"
          transform="translate(145.251388, 27.333905) scale(-1, 1) rotate(-180.000000) translate(-145.251388, -27.333905) "
        ></path>
        <path
          d="M147.662965,130.385399 C146.350682,130.945304 142.640565,131.068964 141.778306,130.189604 C141.173694,129.571304 141.472565,128.953004 141.970682,128.345009 C142.187106,127.682054 142.540941,127.029404 142.723012,126.617204 C143.2864,125.356559 143.506259,122.471159 145.323529,121.578059 C147.024,120.746789 147.013694,122.058959 147.161412,122.873054 C147.329741,123.793634 147.738541,124.710779 148.020235,125.590139 C148.463388,126.981314 150.081412,129.351464 147.662965,130.385399"
          id="path32"
          fill="#EA9794"
          fill-rule="nonzero"
          transform="translate(145.201331, 126.069982) scale(-1, 1) rotate(-180.000000) translate(-145.201331, -126.069982) "
        ></path>
      </g>
    </g>
  </g>
</svg>
