<?xml version="1.0" encoding="UTF-8"?>
<svg
  width="291px"
  height="160px"
  viewBox="0 0 291 160"
  version="1.1"
  xmlns="http://www.w3.org/2000/svg"
  xmlns:xlink="http://www.w3.org/1999/xlink"
>
  <title>mouth-bmp</title>
  <g id="Page-1" stroke="none" stroke-width="1" fill="none" fill-rule="evenodd">
    <g id="Artboard" transform="translate(-776.000000, -1448.000000)">
      <g id="mouth-bmp" transform="translate(776.000000, 1448.000000)">
        <path
          d="M259.232469,92.5568613 C258.416188,87.3803163 237.436847,83.5537263 205.220659,80.2389513 C163.736047,75.9692463 119.688706,78.5420613 80.6191059,79.2908913 C50.2992,79.8714063 27.6070212,87.8886963 26.6076941,93.0308913 C25.6083671,98.1696513 260.044518,97.7299713 259.232469,92.5568613"
          id="path158"
          fill="#EF615B"
          fill-rule="nonzero"
          transform="translate(142.918488, 87.252951) scale(-1, 1) rotate(-180.000000) translate(-142.918488, -87.252951) "
        ></path>
        <path
          d="M261.982024,73.9327606 C261.0648,79.0886956 237.134541,84.8663656 206.450494,84.1690606 C164.254776,83.2141306 112.471153,83.6744206 73.6317176,84.1415806 C42.9442353,84.5091256 24.7512612,79.0371706 23.8347247,73.8812356 C22.9178447,68.7218656 262.902682,68.7733906 261.982024,73.9327606"
          id="path160"
          fill="#EF615B"
          fill-rule="nonzero"
          transform="translate(142.908385, 77.131958) scale(-1, 1) rotate(-180.000000) translate(-142.908385, -77.131958) "
        ></path>
        <path
          d="M21.8693884,82.4735888 C22.02776,84.8368688 265.389835,75.8406038 264.916456,80.5809038 C264.441694,85.3177688 21.3963529,75.3700088 21.8693884,82.4735888"
          id="path162"
          fill="#755946"
          fill-rule="nonzero"
          transform="translate(143.392922, 81.027957) scale(-1, 1) rotate(-180.000000) translate(-143.392922, -81.027957) "
        ></path>
        <path
          d="M20.8652565,84.2575601 C23.5599012,90.5504801 17.4021365,88.9532051 15.7105976,83.3919401 C14.0403576,77.8993751 14.02696,70.6274801 18.8868706,68.5973951 C22.5008,67.0894301 20.4468376,70.2393251 20.4468376,70.2393251 C17.8013176,72.7262651 19.9899435,82.2103001 20.8652565,84.2575601"
          id="path164"
          fill="#755946"
          fill-rule="nonzero"
          transform="translate(18.119014, 78.253080) scale(-1, 1) rotate(-180.000000) translate(-18.119014, -78.253080) "
        ></path>
        <path
          d="M264.816141,84.1761367 C261.109459,89.9297617 267.447576,89.3835967 270.044659,84.1830067 C272.610824,79.0511167 273.837224,71.8857067 269.385082,69.0690067 C266.076894,66.9770917 267.574682,70.4292667 267.574682,70.4292667 C269.7664,73.3215367 266.021929,82.3074967 264.816141,84.1761367"
          id="path166"
          fill="#755946"
          fill-rule="nonzero"
          transform="translate(268.016106, 78.342898) scale(-1, 1) rotate(-180.000000) translate(-268.016106, -78.342898) "
        ></path>
      </g>
    </g>
  </g>
</svg>
